<svg xmlns="http://www.w3.org/2000/svg" viewBox="0 0 1002.5 550.8" xml:space="preserve"><path d="M330.1 4.1c1.7 14.2 9.1 36 17.7 51.7 13.7 25.1 37 49.7 63.6 67.2 17.6 11.6 31 18.1 59.9 29.2 59.4 22.8 109 58.9 138.4 100.6 3.8 5.4 6.3 8.2 6.6 7.2a117 117 0 0 0-6.4-28.4c-14-42-48.6-80.3-94.4-104.4-12-6.3-21.3-10.4-41.8-18.3-61.5-23.6-108.5-59-142.5-107.3-1.7-2.5-1.7-2.5-1.1 2.5m44 109a122 122 0 0 0 64.9 77.4 341 341 0 0 0 96.5 27.7l8.4.7-3.9-4.8c-2.2-2.6-6.8-7.2-10.3-10.2-17.2-14.6-35.8-24.2-74.7-38.4a186 186 0 0 1-74.5-47.7c-6.2-6.7-7-7.3-6.4-4.7m50.9 89.2c5.3 12.7 22.4 31.8 37.2 41.4a179 179 0 0 0 68.8 24.6c11.6 1.9 45.3 2.5 52.8 1 3.8-.8 3.8-.8 2-2.8-4-4.5-18.6-15.1-26.5-19.2-11-5.8-20.4-8.6-45-13.6a455 455 0 0 1-29.1-6.6 229 229 0 0 1-54.7-24.5c-3.4-2.2-6.3-3.9-6.6-3.9s.2 1.6 1.1 3.6" fill-rule="evenodd" clip-rule="evenodd" fill="#0494dc"/><path d="M383.5 420.1v82.5h18l-.3-82.2-.3-82.2-8.8-.3-8.8-.3v82.5m164.2 1v81.5h12v-163h-12zm40-70.5v11h12v-22h-12zm-368.2 29c-6.3 1.1-14.6 5-19 8.9-2 1.8-4.9 5.8-6.5 8.9l-2.8 5.7v39.5c0 38.6 0 39.6 2.2 43.5a33 33 0 0 0 14.8 13.6 42 42 0 0 0 26.8 1.1l5.8-2v12.1c0 10.1-.3 12.6-1.9 14.9-3.7 5.6-5.4 6.2-21.6 6.7l-15 .5-1.6 6-2.3 8.8-.7 2.8 18.8-.4c16.5-.3 19.3-.6 23.4-2.5a36 36 0 0 0 15.7-14.8l2.7-5.1.3-70.8.3-70.8-4.3-1.9a75 75 0 0 0-35.1-4.7m91.7.4a27 27 0 0 0-14.6 8.3c-9.1 9.6-10.1 15.7-9.6 57 .4 30 .5 32.2 2.6 37.4a32 32 0 0 0 14.6 16.7c4.3 2.2 6.8 2.7 15.1 3.1 8.5.3 10.9.1 15.9-1.8a31 31 0 0 0 19.3-25.1l.6-4.9-8.8.3-8.8.3-2 5.3c-1.7 4.5-2.6 5.6-6.1 7.2q-8.2 3.6-16.3 0c-6.5-3-7.7-6.1-8.1-21.8l-.4-13.2h50.4l-.3-23.2c-.3-23.2-.3-23.3-3.1-29-3.4-6.8-10-13-16.5-15.3A49 49 0 0 0 311 380m-300.3 8.3.3 8.8 14.5.5c10.5.4 15.1.9 16.7 2 3.6 2.4 5.4 7.5 6 17.5l.6 9.3-13.9.4c-15.5.5-19.8 1.7-26.8 7.8-7.4 6.5-8.1 9.2-8.1 29s1 23.5 7.9 30.2c6.2 6 11.7 8 22.9 8.6 11.7.5 19-.8 27.8-5.2l6.4-3.1v-91l-2.3-4.6q-5.2-10.2-14.3-15.4c-5.2-2.9-5.8-3-21.6-3.3l-16.3-.3zm101.4-6.1c-3.2.8-8.5 2.7-11.7 4.1l-5.9 2.6v113.8h17l.3-50.6.3-50.6 4-1.4c5.5-2 16.1-2 20.7 0 7.4 3.2 7.3 2.4 7.6 55.5l.3 47.2h18l-.3-48.8-.3-48.8-2.6-5.5c-3.6-7.7-8-12.4-14.7-15.6-4.9-2.4-7.1-2.8-16.2-3-6.9-.3-12.7.1-16.5 1.1m354.4 5.4v5.9l15.2.3c13.9.3 15.5.5 18.4 2.6 5.4 3.9 6.8 8.2 7.2 22.4l.3 12.7-14.3.4c-13.2.3-14.7.6-19.5 3.1-7 3.6-12 9.7-13.5 16.3-.7 3.3-1 10.5-.7 19.1.4 12.9.6 14.3 3.3 19.1 5 9.2 13.5 13.3 27.5 13.3 9.3 0 17.2-1.7 24.6-5.1l4.6-2.1-.3-45.6-.3-45.6-2.4-5.3a31 31 0 0 0-17.4-15.7c-3.5-1-9.5-1.5-18.9-1.5h-13.8zm362.1-4.9c-5 1-11.6 4.7-14.8 8.1-1.2 1.3-3.5 5-5 8.3l-2.8 6v37c0 36.2 0 37.1 2.3 42.6 3 7.5 10.1 14.1 17.3 16.3 6.7 2 17.1 2 23.6.1a29 29 0 0 0 18.8-21.3l.7-3.2h-6c-5.9 0-6 0-7.1 3.3-2.3 7-8.9 11-18.1 11-7.4 0-11.4-1.7-15.3-6.4-3.8-4.5-4.6-9-4.7-23.7v-13.2l25.8-.3 25.8-.3.3-16c.3-19.2-.9-28.2-4.7-35a28 28 0 0 0-14.9-12.5 61 61 0 0 0-21.2-.8m91.2-.1c-5.4 1.3-12.4 6-15.7 10.7-6.6 9.3-6.6 8.8-6.6 61.6v47.8h12v-47.8c0-47.6 0-47.8 2.2-52.2 3.9-7.7 5.8-8.5 21.8-8.8l13.9-.3v-11.8l-12.2.1c-6.7-.1-13.6.3-15.4.7m46.7 1q-.1 2.1 2.5 2c2.5 0 2.5.1 2.5 8 0 7.3.2 8 2 8s2-.7 2-8v-8h3c2.3 0 3-.4 3-2 0-1.8-.7-2-7.5-2s-7.5.2-7.5 2m16 8c0 9.3.1 10.1 1.9 10.1 1.6 0 2-.8 2.2-5.2l.3-5.2 1.8 5.3c2.4 6.8 4.4 6.6 7.4-.8l2.2-5.5v5.8c0 5.1.3 5.8 2 5.8 1.9 0 2-.7 2-10.1v-10.1l-2.7.3c-2.3.3-3 1.2-4.6 6.1-1.1 3.2-2.2 5.8-2.6 5.8s-1.6-2.6-2.7-5.8c-1.7-4.9-2.4-5.8-4.7-6.1l-2.8-.3v9.9m-332.6-7.4a28 28 0 0 0-15.6 9.7c-6.3 7.3-6.6 10.1-6.3 49.9.3 34.4.4 35.5 2.6 40.3q4.2 9.4 13.7 14.3c4.3 2.3 6.2 2.6 14 2.7a28 28 0 0 0 17.8-4.3c.4-.2.8 6.7.8 15.3 0 17.4-.6 19.6-6.4 23.1-2.6 1.6-5.6 1.9-17.3 2.2l-14.2.3-1.6 4.6c-.9 2.5-1.6 5-1.6 5.4s7.2.8 15.9.8h15.9l6.3-3.3c7-3.6 12.1-9.4 13.8-15.5.7-2.4 1-28.2 1-72.4v-68.7l-5.3-2c-11.2-4-23.8-5-33.5-2.4m84.5 0c-3.2.8-8.5 2.6-11.8 4.1l-5.9 2.6v111.8h12V398.9l5.8-2.2c7.8-3 18.2-3.1 23.8-.3 7.7 3.9 7.5 2.6 7.5 57.7v48.8h12l-.3-49.8c-.3-56.6-.1-54.7-9-62.9-7.6-7.2-20.2-9.3-34.1-6m-146.6 59.4v59h12v-118h-12zm239.9-47.7a16 16 0 0 0-7 6.8c-2.3 4.1-2.5 5.8-2.8 18.8l-.3 14.2h40.2v-11c0-6-.5-13.3-1.1-16.1a20 20 0 0 0-10.6-13.6 25 25 0 0 0-18.4.9m-176.4.6a21 21 0 0 0-10.4 10.5c-.7 1.8-1.1 15.2-1 37 0 33.5.1 34.3 2.2 38.1 3.1 5.4 8 7.7 16.2 7.7 8.7 0 13.2-2.3 16.2-8.1 2.2-4.3 2.2-4.9 2.2-44.2v-39.8l-2.8-1.1c-1.5-.6-6.3-1.3-10.8-1.5-6.1-.4-8.7-.1-11.8 1.4m-431.4 1.3c-1.9.5-4.5 1.7-5.8 2.6-5.2 3.4-5.3 4.5-5.3 42.2v35l2.8 3c5.1 5.6 17 5.7 24.8.2l4-2.8.3-39.6.3-39.6-5.7-1.1a29 29 0 0 0-15.4.1m92.9.7c-5.7 3.1-7.5 7.8-7.9 21.4l-.4 11.8h33.5l-.5-11.4c-.6-13.1-2.3-17.7-7.7-21.4a18 18 0 0 0-17-.4m-289 46.9c-5.1 2.6-6 5.2-6 18.2s1.4 17.5 6.5 19.9c4.2 2 12.2 2.5 18.8 1.1l5.7-1.2v-39.8H37.7c-8.2 0-11.5.5-14.2 1.8m455.5.1c-6.7 4.1-7 5-7.3 20.9-.4 17 .3 19.4 6.2 22.6 3.3 1.7 5.8 2.1 12.6 2.1 5 0 10.2-.7 12.5-1.6l4-1.5.3-22.1.3-22.1h-12.8c-10.7-.2-13.3.1-15.8 1.7" fill-rule="evenodd" clip-rule="evenodd" fill="#3c3434"/></svg>
