<svg xmlns="http://www.w3.org/2000/svg" width="17.7cm" height="6.1cm" viewBox="0 0 500.6 174"><link xmlns="" type="text/css" id="dark-mode" rel="stylesheet" href=""/><style xmlns="" type="text/css" id="dark-mode-custom-style"/>
  <defs>
    <style>
      .aao-class-1 {
        fill: #0072bc;
      }
      .aao-class-2 {
        fill: #00aeef;
      }
      .aao-class-3 {
        fill: #231f20;
      }
    </style>
  </defs>
  <title>AAO</title><path class="aao-class-1" d="M186.1,122A139.1,139.1,0,0,1,5.4,122h0v41.3A16.6,16.6,0,0,0,22,179.9H169.5a16.6,16.6,0,0,0,16.6-16.6V122h0Z" transform="translate(-5.4 -5.8)"/><path
    class="aao-class-2"
    d="M154.3,111.2a38.7,38.7,0,0,1-21.1-6.3l-17-39.9a38.8,38.8,0,0,1,70-15V22.4A16.6,16.6,0,0,0,169.5,5.8H22A16.6,16.6,0,0,0,5.4,22.4V74.2L20.6,36.5H35.7l30.7,74.7H51.9L45.4,94.7H10.5L5.6,107.1a128,128,0,0,0,180.5-.1h0V94.7A38.8,38.8,0,0,1,154.3,111.2Zm-41.2,0-6.5-16.5H73.9l-3.6,9L63,85.3,83,36.5H98.1l30.7,74.7H113Z"
    transform="translate(-5.4 -5.8)"/><path class="aao-class-2" d="M78.7,82L89.5,52.2,101.1,82H78.7Z" transform="translate(-5.4 -5.8)"/><path class="aao-class-2" d="M16.6,82L27.4,52.2,39.1,82H16.6Z" transform="translate(-5.4 -5.8)"/><path class="aao-class-2" d="M154.4,96.7a24.4,24.4,0,1,1,24.4-24.4A24.4,24.4,0,0,1,154.4,96.7Z" transform="translate(-5.4 -5.8)"/><path class="aao-class-3" d="M239.1,24.8h7.3l9.1,38h-5.8l-1.8-8.6H237.1l-1.8,8.6H230Zm-1,25.1H247l-4.4-20.4h0Z" transform="translate(-5.4 -5.8)"/><path
    class="aao-class-3"
    d="M259.8,36.4H265v2.4h0.1a8.1,8.1,0,0,1,6-2.8,6.8,6.8,0,0,1,4.9,1.8,5.9,5.9,0,0,1,1.3,1.7l0.3-.3q3.1-3.2,6.2-3.2a7.2,7.2,0,0,1,5.2,1.7,6.6,6.6,0,0,1,1.8,5V62.8h-5.1v-19a4.9,4.9,0,0,0-.9-3.2,3.2,3.2,0,0,0-2.6-1.1,3.7,3.7,0,0,0-3.2,1.4,7.5,7.5,0,0,0-1,4.4V62.8h-5.2V43.8a4.8,4.8,0,0,0-.9-3.2,3.3,3.3,0,0,0-2.7-1.1,3.6,3.6,0,0,0-3.2,1.4,7.4,7.4,0,0,0-1,4.4V62.8h-5.2V36.4Z"
    transform="translate(-5.4 -5.8)"/><path
    class="aao-class-3"
    d="M304,63.4q-5,0-7-2.3t-2-7.9V45.5q0-4.9,2.2-7.3t6.8-2.4q4.7,0,6.9,2.3t2.2,7.3v5.8H300.1v1.9q0,3.9.8,5.2t3.1,1.3a3.9,3.9,0,0,0,3-1,4,4,0,0,0,.9-3V54.9H313v0.8q0.2,3.9-2,5.8T304,63.4Zm3.9-15.7V45.5q0-3.4-.8-4.7a3.4,3.4,0,0,0-3-1.3,3.2,3.2,0,0,0-3,1.4,8.8,8.8,0,0,0-.9,4.6v2.1h7.7Z"
    transform="translate(-5.4 -5.8)"/><path class="aao-class-3" d="M318,36.4h5.2v3.2h-0.1l0.7-.9a7.4,7.4,0,0,1,5.7-2.8v4.9q-3.6,0-5,1.7t-1.4,5.9V62.8H318V36.4Z" transform="translate(-5.4 -5.8)"/><path class="aao-class-3" d="M333.7,24.9h5.4v4.9h-5.4V24.9Zm0.1,11.4H339V62.8h-5.2V36.4Z" transform="translate(-5.4 -5.8)"/><path
    class="aao-class-3"
    d="M361.7,54.5v0.8q0.1,4.1-1.9,6.1t-6.5,2q-4.6,0-6.7-2.1t-2.1-6.8V45.6q0-5.3,2-7.6t6.8-2.3q4.3,0,6.3,1.9t1.8,5.5v1.3h-5.2V43.8a5.3,5.3,0,0,0-.6-3.3,2.6,2.6,0,0,0-2.3-1,3.3,3.3,0,0,0-2.8,1.1,7.1,7.1,0,0,0-.8,4v9.7a8.5,8.5,0,0,0,.8,4.3,3,3,0,0,0,2.8,1.2,3.1,3.1,0,0,0,2.6-1.1,5,5,0,0,0,.7-3.3V54.5h5.2Z"
    transform="translate(-5.4 -5.8)"/><path
    class="aao-class-3"
    d="M373.1,63.4a5.9,5.9,0,0,1-4.8-1.9,8.4,8.4,0,0,1-1.6-5.6h0q0-5.3,2.7-7.3t9.4-2.1h0.6V43.4a4.3,4.3,0,0,0-.9-2.9,3.1,3.1,0,0,0-2.5-1,3.3,3.3,0,0,0-2.7,1.1,5,5,0,0,0-.9,3.2h-5.1a7.4,7.4,0,0,1,2.2-5.9,9.1,9.1,0,0,1,6.5-2.1q4.5,0,6.6,1.9t2.1,6.1v19h-5.2V60.1l-0.5.9Q377.3,63.4,373.1,63.4Zm6.3-13.1h-1.1a7.2,7.2,0,0,0-4.8,1.4,5.1,5.1,0,0,0-1.6,4.1h0a4.9,4.9,0,0,0,.7,3,2.9,2.9,0,0,0,2.4.9,3.8,3.8,0,0,0,3.4-1.8,9.2,9.2,0,0,0,1-5.2V50.2Z"
    transform="translate(-5.4 -5.8)"/><path
    class="aao-class-3"
    d="M390.2,36.4h5.2v2.2h0.1a8.3,8.3,0,0,1,6.1-2.6,6.8,6.8,0,0,1,4.9,1.7,6.2,6.2,0,0,1,1.7,4.7V62.8h-5.1v-19a4.9,4.9,0,0,0-.9-3.2,3.3,3.3,0,0,0-2.7-1.1,3.7,3.7,0,0,0-3.2,1.4,7.4,7.4,0,0,0-1,4.3V62.8h-5.2V36.4Z"
    transform="translate(-5.4 -5.8)"/><path class="aao-class-3" d="M239.1,73.3h7.3l9.1,38h-5.8l-1.8-8.6H237.1l-1.8,8.6H230Zm-1,25.1H247L242.6,78h0Z" transform="translate(-5.4 -5.8)"/><path
    class="aao-class-3"
    d="M271.3,92.5V91.8a4.4,4.4,0,0,0-.6-2.9,2.8,2.8,0,0,0-2.3-.9,3.2,3.2,0,0,0-2.2.7,2.5,2.5,0,0,0-.7,2,3.3,3.3,0,0,0,.7,2.2,20.6,20.6,0,0,0,3.4,2.6,31,31,0,0,1,5.8,4.6,6,6,0,0,1,1.4,4,7.4,7.4,0,0,1-2.2,5.8,9.2,9.2,0,0,1-6.4,2q-4.4,0-6.6-2a6.8,6.8,0,0,1-2-5.4v-1.2h5.1V104a4.3,4.3,0,0,0,.8,3.1,3.4,3.4,0,0,0,2.8,1,3.8,3.8,0,0,0,2.7-.8,3.1,3.1,0,0,0,.9-2.4,3.8,3.8,0,0,0-1-2.6,21.8,21.8,0,0,0-3.9-3.1,23.9,23.9,0,0,1-5.2-4.2,6.1,6.1,0,0,1-1.3-3.9,6.3,6.3,0,0,1,2.1-5.1,8.9,8.9,0,0,1,5.9-1.8q4.3,0,6.2,1.8t1.8,5.2v1.3h-5.1Z"
    transform="translate(-5.4 -5.8)"/><path
    class="aao-class-3"
    d="M292.6,92.5V91.8a4.3,4.3,0,0,0-.6-2.9,2.8,2.8,0,0,0-2.3-.9,3.2,3.2,0,0,0-2.2.7,2.5,2.5,0,0,0-.7,2,3.3,3.3,0,0,0,.7,2.2,20.6,20.6,0,0,0,3.4,2.6,31,31,0,0,1,5.8,4.6,6,6,0,0,1,1.4,4,7.4,7.4,0,0,1-2.2,5.8,9.2,9.2,0,0,1-6.4,2q-4.4,0-6.6-2a6.8,6.8,0,0,1-2-5.4v-1.2h5.1V104a4.3,4.3,0,0,0,.8,3.1,3.4,3.4,0,0,0,2.8,1,3.8,3.8,0,0,0,2.7-.8,3.1,3.1,0,0,0,.9-2.4,3.8,3.8,0,0,0-1-2.6,21.8,21.8,0,0,0-3.9-3.1,23.9,23.9,0,0,1-5.2-4.2,6.1,6.1,0,0,1-1.3-3.9,6.3,6.3,0,0,1,2.1-5.1,8.9,8.9,0,0,1,5.9-1.8q4.3,0,6.2,1.8t1.8,5.2v1.3h-5.1Z"
    transform="translate(-5.4 -5.8)"/><path
    class="aao-class-3"
    d="M305.1,109.4q-2.2-2.4-2.2-7.8V94q0-4.6,2.3-7.1a8.6,8.6,0,0,1,6.6-2.5q4.7,0,6.8,2.3t2.2,7.3v7.7q0,5.4-2.1,7.8t-6.9,2.4Q307.2,111.9,305.1,109.4Zm9.7-2.7a9.1,9.1,0,0,0,.9-4.6V94.4a10.1,10.1,0,0,0-.9-4.9,3.5,3.5,0,0,0-5.8-.1,9.7,9.7,0,0,0-.9,4.8V102q0,3.5.8,4.9a3.2,3.2,0,0,0,3,1.3A3.1,3.1,0,0,0,314.8,106.8Z"
    transform="translate(-5.4 -5.8)"/><path
    class="aao-class-3"
    d="M343.6,103v0.8q0.1,4.1-1.9,6.1t-6.5,2q-4.6,0-6.7-2.1t-2.1-6.8V94.1q0-5.3,2-7.6t6.8-2.3q4.3,0,6.3,1.9t1.8,5.5V93h-5.2V92.3a5.3,5.3,0,0,0-.6-3.3,2.6,2.6,0,0,0-2.3-1,3.3,3.3,0,0,0-2.8,1.1,7.1,7.1,0,0,0-.8,4v9.7a8.5,8.5,0,0,0,.8,4.3,3,3,0,0,0,2.8,1.2,3.1,3.1,0,0,0,2.6-1.1,5,5,0,0,0,.7-3.3V103h5.2Z"
    transform="translate(-5.4 -5.8)"/><path class="aao-class-3" d="M348.6,73.4H354v4.9h-5.4V73.4Zm0.1,11.4h5.2v26.4h-5.2V84.9Z" transform="translate(-5.4 -5.8)"/><path
    class="aao-class-3"
    d="M365.6,111.9a5.9,5.9,0,0,1-4.8-1.9,8.4,8.4,0,0,1-1.6-5.6h0q0-5.3,2.7-7.3t9.4-2.1H372V91.9a4.3,4.3,0,0,0-.9-2.9,3.2,3.2,0,0,0-2.5-1,3.3,3.3,0,0,0-2.7,1.1,5,5,0,0,0-.9,3.2h-5.1a7.4,7.4,0,0,1,2.2-5.9,9.1,9.1,0,0,1,6.5-2.1q4.5,0,6.6,1.9t2.1,6.1v19H372v-2.7l-0.5.9Q369.8,111.9,365.6,111.9ZM372,98.7h-1.1a7.2,7.2,0,0,0-4.8,1.4,5.1,5.1,0,0,0-1.6,4.1h0a4.9,4.9,0,0,0,.7,3,2.9,2.9,0,0,0,2.4.9,3.8,3.8,0,0,0,3.4-1.8,9.2,9.2,0,0,0,1-5.2V98.7Z"
    transform="translate(-5.4 -5.8)"/><path class="aao-class-3" d="M394.7,111.5a15.2,15.2,0,0,1-3.3.4q-3.3,0-4.7-1.3t-1.4-4.3V88.5h-3.6V84.8h3.6V80.1l5.2-2v6.8h4.1v3.6h-4.1v17a2.3,2.3,0,0,0,.9,2.1,6.3,6.3,0,0,0,3.2.6v3.3Z" transform="translate(-5.4 -5.8)"/><path class="aao-class-3" d="M399.7,73.4h5.4v4.9h-5.4V73.4Zm0.1,11.4H405v26.4h-5.2V84.9Z" transform="translate(-5.4 -5.8)"/><path
    class="aao-class-3"
    d="M412.6,109.4q-2.2-2.4-2.2-7.8V94q0-4.6,2.3-7.1a8.6,8.6,0,0,1,6.6-2.5q4.7,0,6.8,2.3t2.2,7.3v7.7q0,5.4-2.1,7.8t-6.9,2.4Q414.8,111.9,412.6,109.4Zm9.7-2.7a9.1,9.1,0,0,0,.9-4.6V94.4a10.1,10.1,0,0,0-.9-4.9,3.5,3.5,0,0,0-5.8-.1,9.7,9.7,0,0,0-.9,4.8V102q0,3.5.8,4.9a3.2,3.2,0,0,0,3,1.3A3.1,3.1,0,0,0,422.3,106.8Z"
    transform="translate(-5.4 -5.8)"/><path
    class="aao-class-3"
    d="M433.9,84.9H439V87h0.1a8.3,8.3,0,0,1,6.1-2.6,6.8,6.8,0,0,1,4.9,1.7,6.2,6.2,0,0,1,1.7,4.7v20.6h-5.1v-19a4.9,4.9,0,0,0-.9-3.2,3.3,3.3,0,0,0-2.7-1.1,3.7,3.7,0,0,0-3.2,1.4,7.4,7.4,0,0,0-1,4.3v17.6h-5.2V84.9Z"
    transform="translate(-5.4 -5.8)"/><path
    class="aao-class-3"
    d="M472.2,109.4q-2.2-2.4-2.2-7.8V94q0-4.6,2.3-7.1a8.6,8.6,0,0,1,6.6-2.5q4.7,0,6.8,2.3T488,94v7.7q0,5.4-2.1,7.8t-6.9,2.4Q474.4,111.9,472.2,109.4Zm9.7-2.7a9.1,9.1,0,0,0,.9-4.6V94.4a10.1,10.1,0,0,0-.9-4.9,3.5,3.5,0,0,0-5.8-.1,9.7,9.7,0,0,0-.9,4.8V102q0,3.5.8,4.9a3.2,3.2,0,0,0,3,1.3A3.1,3.1,0,0,0,481.9,106.8Z"
    transform="translate(-5.4 -5.8)"/><path class="aao-class-3" d="M501.5,88.4v22.9h-5.2V88.4h-3.7V84.8h3.7V79.9q0-3.7,1.4-5.3t4.5-1.6a22.4,22.4,0,0,1,3.7.3v3.4h-1.4a3.1,3.1,0,0,0-2.3.8,3.4,3.4,0,0,0-.8,2.4v5H506v3.6h-4.5Z" transform="translate(-5.4 -5.8)"/><path
    class="aao-class-3"
    d="M233.9,156.8q-2.4-2.8-2.4-10v-14q0-6.4,2.7-9.2t8.7-2.8q6.1,0,8.7,2.8t2.6,9.4v15.9q0,5.6-2.7,8.2t-8.7,2.5Q236.3,159.6,233.9,156.8Zm13.4-3.3q1.4-1.8,1.4-5.7V131.9q0-3.9-1.3-5.4t-4.6-1.5a5.2,5.2,0,0,0-4.5,1.9q-1.4,1.9-1.4,6v14q0,4.8,1.3,6.6t4.6,1.8A5.4,5.4,0,0,0,247.2,153.5Z"
    transform="translate(-5.4 -5.8)"/><path class="aao-class-3" d="M260.5,132.7h5.2v3.2h-0.1l0.7-.9a7.4,7.4,0,0,1,5.7-2.8v4.9q-3.6,0-5,1.7t-1.4,5.9v14.6h-5.2V132.7Z" transform="translate(-5.4 -5.8)"/><path class="aao-class-3" d="M288.2,159.3a15.2,15.2,0,0,1-3.3.4q-3.3,0-4.7-1.3t-1.4-4.3V136.3h-3.6v-3.6h3.6V128l5.2-2v6.8h4.1v3.6h-4.1v17a2.3,2.3,0,0,0,.9,2.1,6.3,6.3,0,0,0,3.2.6v3.3Z" transform="translate(-5.4 -5.8)"/><path
    class="aao-class-3"
    d="M293.5,121.2h5.2v13.9h0.1a8,8,0,0,1,5.9-2.8,6.9,6.9,0,0,1,5,1.7,6.3,6.3,0,0,1,1.7,4.8v20.6h-5.1V140.1a4.9,4.9,0,0,0-.9-3.2,3.2,3.2,0,0,0-2.6-1.1,3.6,3.6,0,0,0-3.1,1.4,7.5,7.5,0,0,0-1,4.4v17.5h-5.2v-38Z"
    transform="translate(-5.4 -5.8)"/><path
    class="aao-class-3"
    d="M318.9,157.3q-2.2-2.4-2.2-7.8v-7.7q0-4.6,2.3-7.1a8.6,8.6,0,0,1,6.6-2.5q4.7,0,6.8,2.3t2.2,7.3v7.7q0,5.4-2.1,7.8t-6.9,2.4Q321.1,159.7,318.9,157.3Zm9.7-2.7a9.1,9.1,0,0,0,.9-4.6v-7.7a10.1,10.1,0,0,0-.9-4.9,3.5,3.5,0,0,0-5.8-.1,9.7,9.7,0,0,0-.9,4.8v7.7q0,3.5.8,4.9a3.2,3.2,0,0,0,3,1.3A3.1,3.1,0,0,0,328.6,154.6Z"
    transform="translate(-5.4 -5.8)"/><path
    class="aao-class-3"
    d="M347.5,159.7q-3.8,0-5.6-2.2t-1.8-6.8v-8.4q0-5.2,1.8-7.7a6.4,6.4,0,0,1,5.5-2.5,6.7,6.7,0,0,1,5.4,2.3V121.2H358v38h-5.2v-2.3A6.7,6.7,0,0,1,347.5,159.7Zm1.6-23.7a3.3,3.3,0,0,0-2.9,1.2,7.5,7.5,0,0,0-.9,4.2V151q0,3,.7,4t2.8,1a3.3,3.3,0,0,0,3.2-1.5q0.9-1.5.9-5.6V141a5.6,5.6,0,0,0-.8-3.7A3.5,3.5,0,0,0,349.1,136Z"
    transform="translate(-5.4 -5.8)"/><path
    class="aao-class-3"
    d="M365.8,157.3q-2.2-2.4-2.2-7.8v-7.7q0-4.6,2.3-7.1a8.6,8.6,0,0,1,6.6-2.5q4.7,0,6.8,2.3t2.2,7.3v7.7q0,5.4-2.1,7.8t-6.9,2.4Q367.9,159.7,365.8,157.3Zm9.7-2.7a9.1,9.1,0,0,0,.9-4.6v-7.7a10.1,10.1,0,0,0-.9-4.9,3.5,3.5,0,0,0-5.8-.1,9.7,9.7,0,0,0-.9,4.8v7.7q0,3.5.8,4.9a3.2,3.2,0,0,0,3,1.3A3.1,3.1,0,0,0,375.5,154.6Z"
    transform="translate(-5.4 -5.8)"/><path
    class="aao-class-3"
    d="M387,132.7h5.2v2.2h0.1a8.3,8.3,0,0,1,6.1-2.6,6.8,6.8,0,0,1,4.9,1.7,6.2,6.2,0,0,1,1.7,4.7v20.6H400v-19a4.9,4.9,0,0,0-.9-3.2,3.3,3.3,0,0,0-2.7-1.1,3.7,3.7,0,0,0-3.2,1.4,7.4,7.4,0,0,0-1,4.3v17.6H387V132.7Z"
    transform="translate(-5.4 -5.8)"/><path class="aao-class-3" d="M422.4,159.3a15.2,15.2,0,0,1-3.3.4q-3.3,0-4.7-1.3t-1.4-4.3V136.3h-3.6v-3.6h3.6V128l5.2-2v6.8h4.1v3.6h-4.1v17a2.3,2.3,0,0,0,.9,2.1,6.3,6.3,0,0,0,3.2.6v3.3Z" transform="translate(-5.4 -5.8)"/><path class="aao-class-3" d="M427.3,121.3h5.4v4.9h-5.4v-4.9Zm0.1,11.4h5.2v26.4h-5.2V132.7Z" transform="translate(-5.4 -5.8)"/><path
    class="aao-class-3"
    d="M449.1,140.4v-0.8a4.4,4.4,0,0,0-.6-2.9,2.8,2.8,0,0,0-2.3-.9,3.2,3.2,0,0,0-2.2.7,2.5,2.5,0,0,0-.7,2,3.3,3.3,0,0,0,.7,2.2,20.6,20.6,0,0,0,3.4,2.6,31,31,0,0,1,5.8,4.6,6,6,0,0,1,1.4,4,7.4,7.4,0,0,1-2.2,5.8,9.2,9.2,0,0,1-6.4,2q-4.4,0-6.6-2a6.8,6.8,0,0,1-2-5.4v-1.2h5.1v0.8a4.3,4.3,0,0,0,.8,3.1,3.4,3.4,0,0,0,2.8,1,3.8,3.8,0,0,0,2.7-.8,3.1,3.1,0,0,0,.9-2.4,3.8,3.8,0,0,0-1-2.6,21.8,21.8,0,0,0-3.9-3.1,23.9,23.9,0,0,1-5.2-4.2,6.1,6.1,0,0,1-1.3-3.9,6.3,6.3,0,0,1,2.1-5.1,8.9,8.9,0,0,1,5.9-1.8q4.3,0,6.2,1.8t1.8,5.2v1.3h-5.1Z"
    transform="translate(-5.4 -5.8)"/><path class="aao-class-3" d="M471.3,159.3a15.2,15.2,0,0,1-3.3.4q-3.3,0-4.7-1.3t-1.4-4.3V136.3h-3.6v-3.6H462V128l5.2-2v6.8h4.1v3.6h-4.1v17a2.3,2.3,0,0,0,.9,2.1,6.3,6.3,0,0,0,3.2.6v3.3Z" transform="translate(-5.4 -5.8)"/><path
    class="aao-class-3"
    d="M487.4,140.4v-0.8a4.4,4.4,0,0,0-.6-2.9,2.8,2.8,0,0,0-2.3-.9,3.2,3.2,0,0,0-2.2.7,2.5,2.5,0,0,0-.7,2,3.3,3.3,0,0,0,.7,2.2,20.6,20.6,0,0,0,3.4,2.6,31,31,0,0,1,5.8,4.6,6,6,0,0,1,1.4,4,7.4,7.4,0,0,1-2.2,5.8,9.2,9.2,0,0,1-6.4,2q-4.4,0-6.6-2a6.8,6.8,0,0,1-2-5.4v-1.2h5.1v0.8a4.3,4.3,0,0,0,.8,3.1,3.4,3.4,0,0,0,2.8,1,3.8,3.8,0,0,0,2.7-.8,3.1,3.1,0,0,0,.9-2.4,3.8,3.8,0,0,0-1-2.6,21.8,21.8,0,0,0-3.9-3.1,23.9,23.9,0,0,1-5.2-4.2,6.1,6.1,0,0,1-1.3-3.9,6.3,6.3,0,0,1,2.1-5.1,8.9,8.9,0,0,1,5.9-1.8q4.3,0,6.2,1.8t1.8,5.2v1.3h-5.1Z"
    transform="translate(-5.4 -5.8)"/></svg>
