<svg id="a5f2cdae-0343-42ed-b77c-e8ba2ff9b60e" data-name="a57ce98f-235e-4ab9-a3b5-b25f38cde64a" xmlns="http://www.w3.org/2000/svg" viewBox="0 0 98.47 83.38">
  <defs>
    <style>
      .b7a5b43e-501f-4567-ba1e-5b0d75e2856d {
        fill: #3b5d7d;
      }
    </style>
  </defs>
  <title>abo</title>
  <g id="ad1c3cee-9179-47f4-bce3-9026fd4eea5c" data-name="a546c3b1-157c-41c4-b36e-7b147b8306e5">
    <g id="b3944741-4c2d-41fa-9c1b-52e2956daa22" data-name="a5f17066-105f-4af0-8649-5349c12192e2">
      <g>
        <path class="b7a5b43e-501f-4567-ba1e-5b0d75e2856d" d="M49.22.52A41.4,41.4,0,1,1,7.8,41.9v0A41.42,41.42,0,0,1,49.22.52ZM89,41.92A39.79,39.79,0,1,0,49.21,81.71h0A39.8,39.8,0,0,0,89,41.92Z" transform="translate(0 0.06)"/>
        <path class="b7a5b43e-501f-4567-ba1e-5b0d75e2856d" d="M5.89,48.41a3,3,0,0,1,1.33,3.7c-.1.36-.23.72-.35,1.08a2.39,2.39,0,0,1,1.75,2.39c0,.74-.09,1.47-.14,2.22a2.78,2.78,0,0,1,2,2.9,9.43,9.43,0,0,1-.08,1.5,3.13,3.13,0,0,1,2.49,3.27v1a1.84,1.84,0,0,1,2,.72A4.69,4.69,0,0,1,16,69.79a1.67,1.67,0,0,0,.05.5,3.11,3.11,0,0,1,3.22,2.54c.26.91.36,1.87.53,2.8a2.62,2.62,0,0,0,1.16,1.87c1.32.85,2.59,1.74,3.89,2.61.15.11.32.21.51.33l-.1.55a4.23,4.23,0,0,1-.69-.3c-1.9-1.33-3.84-2.62-5.66-4a4,4,0,0,0-2.64-1,9.53,9.53,0,0,1-2.06-.2,4,4,0,0,1-2.72-2,2,2,0,0,1-.13-1.9c-.32-.11-.64-.22-1-.35a3.78,3.78,0,0,1-2.43-2.83A5.33,5.33,0,0,1,8,67a4.39,4.39,0,0,1-2.29-1.82,2.46,2.46,0,0,1-.14-2.9,4.49,4.49,0,0,1-2.16-2.1c-.42-1-.71-1.94.14-2.89-.23-.19-.46-.37-.68-.57A4.06,4.06,0,0,1,1.5,53.55a1.68,1.68,0,0,1,.72-1.42A4.64,4.64,0,0,1,.58,49.66a2.43,2.43,0,0,1,.78-2.8A4.68,4.68,0,0,1,0,44.14c-.08-1-.12-2.07,1.05-2.7a4.67,4.67,0,0,1-1-2.8c0-1.06.12-2.07,1.33-2.56a4.84,4.84,0,0,1-.73-2.92c.12-1,.32-2,1.59-2.39a5,5,0,0,1-.42-3c.24-1,.54-2,1.84-2.21a5.32,5.32,0,0,1-.08-3.06c.35-1,.8-1.9,2.1-2a4.9,4.9,0,0,1,.24-3c.46-.94,1-1.83,2.27-1.77.12-2.15.43-4.17,3.18-4.57.62-3,1.87-4.43,3.69-4,.07-.24.14-.47.2-.72a4.48,4.48,0,0,1,2.4-3,1.5,1.5,0,0,1,1.67.06l.32-.78A4.54,4.54,0,0,1,22.44.06,3.23,3.23,0,0,1,23.51,0a.76.76,0,0,1,.78.74v0A3.46,3.46,0,0,1,24,2.3a9.53,9.53,0,0,1-1.26,1.64,1.53,1.53,0,0,1-.45.25l.14.18c.28.07.56.12.83.21a1.29,1.29,0,0,1,1,1.55,1.36,1.36,0,0,1-.24.5,4.12,4.12,0,0,1-3.34,1.82h-.47c0,2.45-1.78,3.1-3.71,3.54a2.36,2.36,0,0,1-.76,2.67A4.64,4.64,0,0,1,13.33,16c.48,1.85-.06,2.72-2.6,4.22a2.39,2.39,0,0,1-.13,2.58,4.54,4.54,0,0,1-2,1.78,2.2,2.2,0,0,1,.19,2.61,17.76,17.76,0,0,1-1.63,2.14c1,1.3.74,2.39-1.17,4.64a2.11,2.11,0,0,1,.7,2.46,18.64,18.64,0,0,1-1.12,2.45A3,3,0,0,1,6,42.64c-.16.32-.37.62-.59,1A1.73,1.73,0,0,1,6.52,45a3.87,3.87,0,0,1-.14,2.4C6.22,47.66,6.05,48.05,5.89,48.41Zm9.59-39.3.17.07c.13-.11.25-.21.37-.33.65-.6,1.27-1.23,1.95-1.79a3,3,0,0,0,1-2.35c0-.71-.33-.94-1-.65a3.52,3.52,0,0,0-2,2.35A27.12,27.12,0,0,0,15.48,9.11ZM16.94,75c-.84-.88-1.62-1.67-2.37-2.49a2.61,2.61,0,0,0-2.17-.75.61.61,0,0,0-.56,1,4.79,4.79,0,0,0,1,1.36C14,75.15,15.42,75.08,16.94,75ZM19.57,5.66c.51-.38.94-.66,1.33-1a25.78,25.78,0,0,0,2-1.91,3.74,3.74,0,0,0,.7-1.32c.2-.61-.16-.94-.79-.78A3.36,3.36,0,0,0,22,1C20.27,2,19.88,3.74,19.57,5.66ZM12,13.11l.2.06c.09-.1.19-.19.27-.29l1.88-2.22a2.83,2.83,0,0,0,.54-2.35c-.1-.61-.43-.74-1-.44a3.25,3.25,0,0,0-1.65,2.32A28.69,28.69,0,0,0,12,13.12Zm1.24,58.12v-.17c-.59-.78-1.23-1.54-1.76-2.36a2.79,2.79,0,0,0-2-1.25c-.78-.13-1.15.27-.9,1a3.25,3.25,0,0,0,2.11,2.21C11.48,70.91,12.33,71,13.22,71.23Zm5-63.57.08.19a9.55,9.55,0,0,0,3.41-.19A3,3,0,0,0,23.4,6.35c.22-.36.24-.71-.17-.94a1.94,1.94,0,0,0-2-.11C20.22,6,19.22,6.85,18.22,7.66Zm-8,59.3c-.36-.58-.65-1-.92-1.48s-.54-.93-.78-1.41a2.44,2.44,0,0,0-1.86-1.25c-.64-.13-1,.25-.82.86a5.47,5.47,0,0,0,.89,1.73c.87,1,2.14,1.25,3.49,1.53Zm.65-55c-1.72.34-2.65,3-1.65,5.57l.3-.45,1.5-2.3a2.85,2.85,0,0,0,.17-2.5c0-.15-.19-.27-.29-.38Zm-4,10.27c.52-1,.94-2,1.44-2.86a2.84,2.84,0,0,0,0-2.54c-.17-.46-.55-.56-.9-.21a4.24,4.24,0,0,0-.91,1.3C5.83,19.35,6.34,20.72,6.83,22.23Zm7.66-10.85.11.2c.84-.1,1.69-.14,2.51-.3a3.11,3.11,0,0,0,2.2-1.62c.29-.52.19-.88-.27-1.08a1.82,1.82,0,0,0-1.88.13A33.63,33.63,0,0,0,14.49,11.38Zm-6.86,51c-.44-1-.88-1.86-1.2-2.77a2.65,2.65,0,0,0-1.21-1.46c-.37-.21-.77-.52-1.19-.21s-.24.82-.2,1.26v.1c.51,1.88,2.06,2.49,3.8,3.07Zm-4.9-9.72c-.6.2-.59.65-.57,1.09a4.35,4.35,0,0,0,3.42,3.72l-.16-.56c-.25-.81-.54-1.6-.76-2.42A2.67,2.67,0,0,0,2.73,52.66ZM5,27.06C5.41,26,5.77,25,6.14,24a2.71,2.71,0,0,0-.33-2.42c-.24-.41-.55-.42-.9-.09a3,3,0,0,0-.85,1.8A6.56,6.56,0,0,0,5,27.06ZM1.46,36.75a1.34,1.34,0,0,0-.74,1.16c-.31,1.92.81,3.17,2.14,4.36a19.79,19.79,0,0,0,0-3.61A2.32,2.32,0,0,0,1.46,36.75ZM4.12,52.66c-.21-1.15-.44-2.16-.59-3.18a2.61,2.61,0,0,0-1.31-1.82c-.5-.34-.92-.16-1,.45a3.44,3.44,0,0,0,0,1.28C1.52,51,2.76,51.78,4.12,52.66ZM2.22,31.48c-1.56.68-1.06,4.06.84,5.63.16-1.2.34-2.37.45-3.55A2.37,2.37,0,0,0,2.22,31.48ZM19,76l.19-.1c-.22-1-.39-2.08-.68-3.09a2.88,2.88,0,0,0-1.39-1.69c-.61-.35-1-.16-1.11.53a2.36,2.36,0,0,0,.72,2.26C17.53,74.56,18.22,75.28,19,76ZM3.51,26.26c-1.62.7-1.45,4.26.25,5.69.28-1.16.6-2.31.85-3.47A2.57,2.57,0,0,0,3.51,26.26ZM3.22,47.44a1,1,0,0,0,0-.25c-.07-.88-.21-1.76-.2-2.64a2.69,2.69,0,0,0-1.13-2.16,2.05,2.05,0,0,0-.67-.27C-.13,43.32,1,46.19,3.22,47.44Zm8.1-31.95.1.12c.35,0,.71-.08,1.06-.16A11.72,11.72,0,0,0,14,15a3,3,0,0,0,1.79-1.71c.23-.54.09-.92-.37-1.06a1.87,1.87,0,0,0-1.9.38C12.72,13.51,12.06,14.53,11.32,15.49Zm-2.64,4.4.15.17c.82-.31,1.66-.56,2.45-.95a2.76,2.76,0,0,0,1.59-2.06c.06-.37,0-.71-.46-.8a1.86,1.86,0,0,0-1.86.56A33.22,33.22,0,0,0,8.68,19.89Zm6.44,52.49.2-.16A7.62,7.62,0,0,0,15,68.77a5.15,5.15,0,0,0-1.17-1.53c-.37-.35-.75-.2-.93.29a2.17,2.17,0,0,0,.25,2.33c.58.69,1.17,1.37,1.74,2.07A2.38,2.38,0,0,1,15.12,72.38ZM6.6,24.54l.11.09a7.79,7.79,0,0,0,2.76-1.52,4.33,4.33,0,0,0,.85-1.45,1.08,1.08,0,0,0-.1-1,1.33,1.33,0,0,0-1,0,2,2,0,0,0-1.5,1.24C7.39,22.79,7,23.66,6.6,24.54Zm5.29,43.69.15-.06a7.72,7.72,0,0,0,0-3.76,2.06,2.06,0,0,0-1.32-1.51A2,2,0,0,0,10,65.18C10.54,66.23,11.22,67.22,11.89,68.23ZM5,29.39l.18.11c.71-.47,1.43-.9,2.11-1.41A3.05,3.05,0,0,0,8.45,26c.1-.62-.22-1.07-.72-1a2,2,0,0,0-1.59,1A33.38,33.38,0,0,0,5,29.39ZM4,34.33l.22.13c.71-.63,1.46-1.21,2.11-1.89A2.7,2.7,0,0,0,7,30.4a.63.63,0,0,0-.73-.69,2,2,0,0,0-1.58,1.18A32.82,32.82,0,0,0,4,34.33ZM3.51,39.4l.16.06a7.09,7.09,0,0,0,2.2-2.6,4.41,4.41,0,0,0,.18-1.77c0-.54-.47-.71-1-.47A2,2,0,0,0,3.81,36c-.15,1.12-.2,2.27-.31,3.4Zm.65,10.13.19.06a21,21,0,0,0,1.28-2.2A4.68,4.68,0,0,0,6,45.58a1.23,1.23,0,0,0-.74-1.3,2.12,2.12,0,0,0-1.48,1.84c.09,1.14.27,2.28.41,3.41Zm-.53-5h.14c.47-.6,1-1.18,1.4-1.8a3.21,3.21,0,0,0,.61-2.26,1,1,0,0,0-.64-1.07,2.21,2.21,0,0,0-1.65,2c0,.85,0,1.7.07,2.55,0,.16,0,.34.06.53ZM7,59.29h.27c.28-1,.63-2,.81-3a2.45,2.45,0,0,0-.62-2.08A.51.51,0,0,0,6.7,54l-.1.07A2,2,0,0,0,5.84,56,26.92,26.92,0,0,0,7,59.29Zm2.2,4.57H9.3a7.83,7.83,0,0,0,.5-3.49A5,5,0,0,0,9,58.73a.47.47,0,0,0-.65-.15.54.54,0,0,0-.15.15,2.09,2.09,0,0,0-.52,2.07A30.8,30.8,0,0,0,9.15,63.86ZM5.3,54.49a7.18,7.18,0,0,0,1.39-3,2.76,2.76,0,0,0-.36-2c-.31-.45-.65-.51-1-.11a2.2,2.2,0,0,0-.73,2.14C4.82,52.53,5.06,53.51,5.3,54.49Z" transform="translate(0 0.06)"/>
        <path class="b7a5b43e-501f-4567-ba1e-5b0d75e2856d" d="M79.1,3.56a1.92,1.92,0,0,1,2.28.31,4.44,4.44,0,0,1,1.84,2.69,2.71,2.71,0,0,0,.17.68A2.05,2.05,0,0,1,85.73,8,4.27,4.27,0,0,1,87,10.66a3.82,3.82,0,0,0,.12.66,3,3,0,0,1,3,2.63,15.7,15.7,0,0,1,.19,1.8,3.22,3.22,0,0,1,2.63,3.36,8.28,8.28,0,0,1-.08,1.43A2.62,2.62,0,0,1,95,23a5.58,5.58,0,0,1,.06,1.29q-.09.63-.24,1.26a3.25,3.25,0,0,1,1.8,4.06c-.1.4-.25.78-.37,1.19,1.16.29,1.43,1.21,1.56,2.18a4.25,4.25,0,0,1-.5,2.66c-.07.14-.14.28-.2.42a3.09,3.09,0,0,1,1,4c-.22.49-.46,1-.73,1.44a3.3,3.3,0,0,1,.43,4.36c-.23.35-.49.67-.74,1,1.16.86,1,2,.62,3.14a13.43,13.43,0,0,1-1.37,2.27c.82.73.63,1.74.34,2.74a4.23,4.23,0,0,1-1.85,2.29A3.21,3.21,0,0,1,94,61.5c-.36.32-.78.57-1.21.88a1.74,1.74,0,0,1,.34,1.68,3.81,3.81,0,0,1-1.51,2.3,14.31,14.31,0,0,1-1.37.79A2.52,2.52,0,0,1,89.73,70a4.34,4.34,0,0,1-2.61,1.57,3.42,3.42,0,0,1-2.73,4l-.13,0a12,12,0,0,1-2.32.22,3.67,3.67,0,0,0-2.23.79c-1.93,1.47-3.93,2.84-5.91,4.24-.26.19-.55.36-.79-.17.15-.12.3-.27.48-.39,1.22-.82,2.42-1.68,3.68-2.44a3.4,3.4,0,0,0,1.59-2.91,6.18,6.18,0,0,1,.94-3.1c.65-.92,1.4-1.66,2.69-1.34.32-1.87.61-3.73,3.06-4,.11-1.79.12-3.7,2.41-4.18a20.89,20.89,0,0,1,.36-2.72,2,2,0,0,1,1.84-1.75c-.32-1.8-.65-3.6,1.5-4.69-.53-1.68-1-3.45.88-4.69a18.7,18.7,0,0,1-.57-2.57,2,2,0,0,1,1-2.2A21.09,21.09,0,0,1,92,41.08a2,2,0,0,1,.84-2.27,16.49,16.49,0,0,1-1.13-2.45,2.06,2.06,0,0,1,.7-2.45c-1.29-1.38-2.41-2.8-1.1-4.84a4.4,4.4,0,0,1-1.74-2,2.2,2.2,0,0,1,.11-2.41,18.51,18.51,0,0,1-1.86-2,2.16,2.16,0,0,1-.14-2.56C86,19.26,84.56,18.23,85,15.9c-1.73-.62-3.35-1.44-3.1-3.85-1.85-.43-3.58-1.06-3.64-3.53a6.49,6.49,0,0,1-1.1-.14A3.92,3.92,0,0,1,74.75,7c-1-1.13-.54-2.27.91-2.54l.48-.09-.54-.55a4.9,4.9,0,0,1-1.45-2.3C73.9.47,74.47-.2,75.54,0a4.23,4.23,0,0,1,3,2.36A9.38,9.38,0,0,1,79.1,3.56Zm3.74,5.69A7.75,7.75,0,0,0,82.3,6,3.54,3.54,0,0,0,80.3,4c-.55-.21-.94,0-.87.56a3.91,3.91,0,0,0,.58,2A29.78,29.78,0,0,0,82.84,9.25ZM81.57,74.94l.05.19a20.31,20.31,0,0,0,2.7-.33,3.16,3.16,0,0,0,2.29-2.14c.16-.47,0-.88-.51-.85a3.52,3.52,0,0,0-1.88.45A26.81,26.81,0,0,0,81.57,74.94ZM78.85,5.52c-.1-.48-.18-1-.31-1.46a4.5,4.5,0,0,0-1.39-2.49,5.9,5.9,0,0,0-1.5-.91c-.67-.26-1,.07-.86.77A3.3,3.3,0,0,0,75.3,2.5,11.45,11.45,0,0,0,78.85,5.52Zm6.23,65.66c.63-.09,1.15-.12,1.65-.22a3.66,3.66,0,0,0,3.12-2.6.67.67,0,0,0-.77-.94A2.63,2.63,0,0,0,87,68.66a7.19,7.19,0,0,1-.61.84Zm1.15-58,.22,0a28.64,28.64,0,0,0-.23-3.06A3.18,3.18,0,0,0,84.5,7.84c-.48-.26-.91-.09-.91.42a4,4,0,0,0,.31,2,26.07,26.07,0,0,0,2.32,2.92Zm-6.1-5.36.19-.23a3.06,3.06,0,0,1-.51-.26c-.74-.58-1.45-1.23-2.23-1.77a2.63,2.63,0,0,0-1.28-.42c-.52,0-1.17,0-1.37.59s.3,1,.72,1.33C77,8.18,78.59,7.87,80.13,7.82Zm9,9.69.09-.05c.07-.34.15-.67.21-1a4.32,4.32,0,0,0-.87-3.91,6.88,6.88,0,0,0-1-.78c-.2.3-.4.47-.45.68a2.74,2.74,0,0,0,.32,2.48c.45.63.86,1.3,1.28,1.95A6.27,6.27,0,0,1,89.13,17.51Zm-.91,49.31.12.17A24.36,24.36,0,0,0,91,66a3.11,3.11,0,0,0,1.59-2.38c.09-.59-.22-.91-.81-.79a2.4,2.4,0,0,0-1.9,1.27,13.93,13.93,0,0,1-.78,1.41C88.81,65.93,88.52,66.37,88.22,66.82Zm2.56-4.47a6.45,6.45,0,0,0,2.94-1.53,3.28,3.28,0,0,0,1-2.28c0-.4-.19-.77-.64-.7A2.39,2.39,0,0,0,92.28,59c-.55,1-1,2.14-1.48,3.32Zm2-4.78a6.61,6.61,0,0,0,2.59-1.67,3.33,3.33,0,0,0,.85-2.43c0-.53-.33-.82-.74-.71A2.26,2.26,0,0,0,93.91,54c-.41,1.11-.69,2.29-1.08,3.56ZM97,36.77a2.52,2.52,0,0,0-1.52,2.08v3.06a1.47,1.47,0,0,0,.08.5c.54-.65,1-1.18,1.44-1.76a3.52,3.52,0,0,0,.66-2.55A1.23,1.23,0,0,0,97,36.77ZM91.52,22.1h.15A18.56,18.56,0,0,0,92.22,20a3.58,3.58,0,0,0-1-3.37c-.45-.43-.87-.35-1.08.24a2.88,2.88,0,0,0,.07,2.45c.41.73.76,1.51,1.13,2.27ZM83.94,11.52c-.17-.22-.26-.36-.37-.48-.63-.66-1.28-1.32-1.91-2a2,2,0,0,0-2.2-.47.6.6,0,0,0-.52.66.7.7,0,0,0,.11.27A3.64,3.64,0,0,0,80,10.66C81.12,11.55,82.49,11.48,83.94,11.52ZM97.38,42.2A2.18,2.18,0,0,0,95.5,44c-.08.91-.14,1.83-.22,2.74a3.6,3.6,0,0,1-.08.86c1.11-.9,2.12-1.69,2.47-3A2.53,2.53,0,0,0,97.38,42.2ZM94.29,52.66a7,7,0,0,0,2.38-2,3.16,3.16,0,0,0,.55-2.61c-.15-.58-.5-.74-1-.42a2.53,2.53,0,0,0-1.36,2,9.1,9.1,0,0,1-.16.91C94.58,51.18,94.44,51.85,94.29,52.66Zm1.93-21.19A2.58,2.58,0,0,0,95,33.66c.08.69.17,1.37.26,2.06.06.46.12.91.19,1.37h.17c.42-.69.87-1.36,1.25-2.07A3.33,3.33,0,0,0,97,32.31C96.85,32,96.7,31.58,96.22,31.47Zm-2.81-4.42a6,6,0,0,0,.94-3.81,5.42,5.42,0,0,0-.83-1.75.47.47,0,0,0-.64-.19.44.44,0,0,0-.19.19,2.49,2.49,0,0,0-.54,2.1C92.45,24.71,93,25.81,93.41,27.05ZM94.66,32h.18a23.84,23.84,0,0,0,1-2.34,3.19,3.19,0,0,0-.24-2.71,3.47,3.47,0,0,0-.65-.73,2.51,2.51,0,0,0-1.12,2.56c.2.79.38,1.58.58,2.37A5.46,5.46,0,0,1,94.66,32ZM79.22,75.89l.15.07c.15-.11.3-.22.44-.34.66-.61,1.31-1.23,2-1.84a2.26,2.26,0,0,0,.58-2.3c-.11-.56-.47-.69-1-.43a2.83,2.83,0,0,0-1.47,1.74A25.26,25.26,0,0,0,79.22,75.89Zm7.9-60.23c-.14-.22-.22-.37-.31-.5L85.22,13a2.07,2.07,0,0,0-2-.76.65.65,0,0,0-.68.62.64.64,0,0,0,.1.38,3.32,3.32,0,0,0,.61,1C84.22,15.33,85.65,15.37,87.12,15.66ZM89.61,20l.12-.1c-.52-.89-1-1.78-1.55-2.68a2,2,0,0,0-1.92-1,.65.65,0,0,0-.75.53.68.68,0,0,0,.06.4,4.36,4.36,0,0,0,.72,1.3A6.46,6.46,0,0,0,89.61,20ZM83,72.21l.24.09c.68-.82,1.37-1.63,2-2.45a2.14,2.14,0,0,0,.24-2.29c-.19-.49-.51-.58-1-.31A2.62,2.62,0,0,0,83.25,69c-.1,1-.14,2.08-.24,3.14Zm3.36-4h.16c.54-.82,1-1.66,1.62-2.45a2.26,2.26,0,0,0,.18-2.18,3.27,3.27,0,0,0-.54-.74,2.33,2.33,0,0,0-1.46,1.65,8.12,8.12,0,0,0,0,3.67ZM91.7,24.66l.13-.09c-.41-.94-.84-1.88-1.23-2.83A2,2,0,0,0,89,20.57c-.72-.15-1.13.29-.9,1a4.82,4.82,0,0,0,.8,1.48A7.15,7.15,0,0,0,91.7,24.66Zm1.52,4.85.14-.14c-.28-.93-.59-1.86-.85-2.81a2.17,2.17,0,0,0-1.57-1.49c-.62-.2-1,.07-1,.71A2.74,2.74,0,0,0,91,28C91.73,28.56,92.51,29,93.22,29.51Zm1.17,4.87c-.19-1-.37-2-.57-3a2.17,2.17,0,0,0-1.6-1.64.57.57,0,0,0-.75.28.49.49,0,0,0,0,.16,1.89,1.89,0,0,0,0,.67c.17,1.81,1.62,2.63,3,3.53Zm.35,5.08h.13c-.08-1-.13-2-.27-3a2.43,2.43,0,0,0-.52-1.14c-.44-.58-1.11-.87-1.41-.64a1.42,1.42,0,0,0-.38,1.52c.28,1.46,1.45,2.3,2.48,3.26ZM89.12,63.83h.14c.43-.85.84-1.72,1.3-2.56a2,2,0,0,0,.18-1.55c-.15-.5-.23-1.17-.87-1.21s-.83.55-1,1C88.22,61,88.78,62.43,89.12,63.83Zm4-19.56a1.72,1.72,0,0,0-.72,1.8c.06,1.39.94,2.4,1.72,3.57.06-.22.11-.35.13-.47.11-.88.22-1.75.34-2.62a2.15,2.15,0,0,0-1.37-2.28Zm-.2,10.2h.16c.23-.92.41-1.85.69-2.75a2.25,2.25,0,0,0-.55-2.16c-.47-.59-1-.53-1.28.14a2.77,2.77,0,0,0-.24.79c-.21,1.53.63,2.72,1.27,4Zm1.73-10h.22V41.41a2.2,2.2,0,0,0-1.21-1.91.54.54,0,0,0-.76.06.55.55,0,0,0-.12.24A3.37,3.37,0,0,0,92.61,41c.14,1.51,1.22,2.45,2.09,3.5ZM91.25,59.2h.17c.32-.89.61-1.79,1-2.67a2.1,2.1,0,0,0-.06-1.75c-.18-.41-.38-.9-.9-.9s-.7.54-.89,1a2,2,0,0,0-.11.35c-.33,1.49.37,2.73.84,4Z" transform="translate(0 0.06)"/>
        <path class="b7a5b43e-501f-4567-ba1e-5b0d75e2856d" d="M82.94,80.19a2.79,2.79,0,0,1,2.7-2.88h.14a2.87,2.87,0,0,1,0,5.74,2.8,2.8,0,0,1-2.84-2.76Zm2.86,2.47a2.41,2.41,0,0,0,2.35-2.47h0a2.46,2.46,0,0,0-2.37-2.53h0a2.47,2.47,0,0,0,0,4.94Z" transform="translate(0 0.06)"/>
        <path class="b7a5b43e-501f-4567-ba1e-5b0d75e2856d" d="M49.22,71.39A29.49,29.49,0,1,1,78.7,41.89v.37A29.5,29.5,0,0,1,49.22,71.39ZM21.34,41.88A27.88,27.88,0,1,0,49.24,14h0A27.87,27.87,0,0,0,21.34,41.88Z" transform="translate(0 0.06)"/>
        <path class="b7a5b43e-501f-4567-ba1e-5b0d75e2856d" d="M24.22,21.11l-3.17-3c.51-.55,1-1.1,1.49-1.6.94-.9,1.87-.61,2.16.63a3.51,3.51,0,0,1,.85.14,1.18,1.18,0,0,1,.58,1.58,1,1,0,0,1-.16.26,2.44,2.44,0,0,1-.32.4A18.82,18.82,0,0,1,24.22,21.11Zm.08-1.25,1.13-1.34-.75-.69L23.6,19.2Zm-1.9-1.77.6.56,1.08-1.28-.6-.66Z" transform="translate(0 0.06)"/>
        <path class="b7a5b43e-501f-4567-ba1e-5b0d75e2856d" d="M71.15,18.1l3-3.24c.59.63,1.15,1.16,1.64,1.76a1.72,1.72,0,0,1,0,2.4c-1,1.17-2.07,1.39-3,.55A16.87,16.87,0,0,1,71.15,18.1Zm1.34,0c.45.33.7,1,1.48,1a2,2,0,0,0,1.25-1.28c.08-.77-.59-1.06-1-1.57Z" transform="translate(0 0.06)"/>
        <path class="b7a5b43e-501f-4567-ba1e-5b0d75e2856d" d="M39.06,11,38,6.84a20.49,20.49,0,0,1,2.32-.53c1.24-.15,1.82.33,2.16,1.58a1.88,1.88,0,0,1-.94,2.49,2,2,0,0,1-.53.15C40.35,10.71,39.73,10.86,39.06,11Zm.73-1.14c1.22-.21,1.63-.41,1.7-.89A1.69,1.69,0,0,0,41,7.35c-.59-.45-1.2,0-1.84.11Z" transform="translate(0 0.06)"/>
        <path class="b7a5b43e-501f-4567-ba1e-5b0d75e2856d" d="M25.13,14.85a2.61,2.61,0,0,1,2.37-2.19,2.82,2.82,0,0,1,2.29,2.51,2.71,2.71,0,0,1-2.38,2.22A2.81,2.81,0,0,1,25.13,14.85Zm2.19-1.19a1.47,1.47,0,0,0-1.22,1.17,2.21,2.21,0,0,0,1.49,1.62,1.44,1.44,0,0,0,1.21-1.17C28.78,14.66,27.86,13.6,27.32,13.66Z" transform="translate(0 0.06)"/>
        <path class="b7a5b43e-501f-4567-ba1e-5b0d75e2856d" d="M33.36,8.66c.69-.28,1.31-.56,1.94-.8A1.35,1.35,0,0,1,37,8.17,1.42,1.42,0,0,1,37,10l1.75,1.15-1.08.44L36.11,10.5l-.71.31L36,12.26l-.89.4c-.29-.69-.57-1.34-.84-2S33.65,9.39,33.36,8.66Zm1.72,1.5a6.24,6.24,0,0,0,1.14-.75c.11-.11-.08-.5-.16-.89l-1.48.53Z" transform="translate(0 0.06)"/>
        <path class="b7a5b43e-501f-4567-ba1e-5b0d75e2856d" d="M57.15,10.4,56,10.18l-.67-1.71-.77-.16-.34,1.56-.93-.21.76-4.26a9.32,9.32,0,0,1,2.79.71,1.3,1.3,0,0,1,.25,1.82,1.46,1.46,0,0,1-.37.33l-.41.19ZM54.67,7.59c.52,0,1,.39,1.44,0a.72.72,0,0,0,.14-.65c-.29-.52-.86-.36-1.36-.51Z" transform="translate(0 0.06)"/>
        <path class="b7a5b43e-501f-4567-ba1e-5b0d75e2856d" d="M70.66,12.05l2.59,2-.52.7-1.82-1.42L70.4,14l1.51,1.23-.46.61-1.54-1.14-.61.74,1.92,1.49-.53.67L68,15.46Z" transform="translate(0 0.06)"/>
        <path class="b7a5b43e-501f-4567-ba1e-5b0d75e2856d" d="M52.81,8.81l-.13.8-3.34-.15.22-4.32,3.22.16v.86l-2.25-.11-.06.82L52.36,7v.64H50.43v1Z" transform="translate(0 0.06)"/>
        <path class="b7a5b43e-501f-4567-ba1e-5b0d75e2856d" d="M31.28,13.81l.11,1-.88.5-.62-4.65.93-.55,3.81,2.74-.91.57-.78-.55Zm-.34-2.61-.13.06L31.12,13l1.13-.7Z" transform="translate(0 0.06)"/>
        <path class="b7a5b43e-501f-4567-ba1e-5b0d75e2856d" d="M16.91,35.42l.17-.37.38.12-.12.91L14.16,37,17,38.66l-.13.93-.38-.06-.12-.37-2.65-.37-.76.42.21-1.49.5.4-.06.11,1.93.27.06-.12-2-1.19a3.79,3.79,0,0,1-.47-.51l2.76-.79v-.13l-1.8-.27-.56.36-.11-.12.19-1.07h.36l.11.38Z" transform="translate(0 0.06)"/>
        <path class="b7a5b43e-501f-4567-ba1e-5b0d75e2856d" d="M67.93,10.25l-.41.79-2-1.06-.42.76,1.69,1-.39.71-1.7-.88-.8,1.48L63,12.59l2-3.83Z" transform="translate(0 0.06)"/>
        <path class="b7a5b43e-501f-4567-ba1e-5b0d75e2856d" d="M48.49,5.32,48.42,6c-.78,0-1.7-.35-2.16.57a1.59,1.59,0,0,0,.24,1.81c.59.61,1.35.26,2.1.08l.16.66a2.62,2.62,0,0,1-3,0A2.92,2.92,0,0,1,45.42,6,2.76,2.76,0,0,1,48.49,5.32Z" transform="translate(0 0.06)"/>
        <path class="b7a5b43e-501f-4567-ba1e-5b0d75e2856d" d="M22.33,61.22l.23-.83.63.77-1,3.17.1.08,1.62-1.26.13-.7h.18l.85,1-.69.09v-.11l-2.62,2c-.36-.16-.36-.42-.26-.74.26-.75.5-1.5.74-2.26a1.06,1.06,0,0,0,0-.47l-1.6,1.25-.13.69h-.15l-.85-1,.69-.09v.11Z" transform="translate(0 0.06)"/>
        <path class="b7a5b43e-501f-4567-ba1e-5b0d75e2856d" d="M81.83,45.85l-.27.44c-.54-.42-.07-.89-.17-1.32h.4l.11.4,3.32.52v.51l-3,1.37v.14l2.13.32.2-.38.35.09-.17,1.19h-.36l-.1-.42-2.72-.41-.71.44.13-1,3-1.42v-.13Z" transform="translate(0 0.06)"/>
        <path class="b7a5b43e-501f-4567-ba1e-5b0d75e2856d" d="M75.51,64.14,74.3,65.51l1,.86.34-.19.29.26L75,67.5l-.17-.66.11,0-2-1.83-.86-.07,1-1.07.3.26-.16.37.87.75,1.13-1.36-.74-.67h-.84l.94-1.08.31.26-.17.35,2.1,1.87h.65v.14l-.91,1-.18-.65.12,0Z" transform="translate(0 0.06)"/>
        <path class="b7a5b43e-501f-4567-ba1e-5b0d75e2856d" d="M24.68,68.55l.71-.18,1.65-2v-.84l1.49,1.23c.39.32.74.68.6,1.24a1.14,1.14,0,0,1-1.08.85v.36a.91.91,0,0,1-.58,1,1.5,1.5,0,0,1-1.06-.09,19.13,19.13,0,0,1-1.73-1.39Zm.95.38,1.37,1c.23-.33.53-.57.54-.83,0-.66-.65-.81-1-1.26Zm1.16-1.38c.32.27.58.5.85.7a.52.52,0,0,0,.73,0l.05-.06a.55.55,0,0,0,0-.78s0,0,0-.05c-.25-.25-.54-.47-.84-.73Z" transform="translate(0 0.06)"/>
        <path class="b7a5b43e-501f-4567-ba1e-5b0d75e2856d" d="M59.42,11.14l-.93-.3,1-3.27-1.27-.44.26-.83,3.57,1.13-.23.82-1.34-.36Z" transform="translate(0 0.06)"/>
        <path class="b7a5b43e-501f-4567-ba1e-5b0d75e2856d" d="M68.4,70.77l1.51.57L70,71.2l.22.32L69,72.27l-.13-.7-1-.45-.7.44.54.89.41-.06.19.32-1,.68-.26-.29.25-.34-1.48-2.31-.67-.21v-.16c.57-.36,1.13-.74,1.7-1.08a1.08,1.08,0,0,1,1.39.1,1.16,1.16,0,0,1,.28,1.42A.66.66,0,0,0,68.4,70.77ZM66.13,70l.79,1.23c.47-.37,1.14-.46,1.18-1.13a.93.93,0,0,0-.47-.68C67,69.12,66.7,69.72,66.13,70Z" transform="translate(0 0.06)"/>
        <path class="b7a5b43e-501f-4567-ba1e-5b0d75e2856d" d="M39.36,76.82l-1.14-.31-.07-.14.57-.43.67-2.52-.28-.59.11-.17c.75.23,1.52.42,2.25.69a.9.9,0,0,1,.53,1,1.13,1.13,0,0,1-.6,1,5.27,5.27,0,0,1-.51.19L41.51,77h.14l-.11.38L40.18,77l.48-.5-.44-1.09-.82-.22-.26.92.3.56Zm.18-2c.62,0,1.16.56,1.67,0a1,1,0,0,0,.13-.8c-.29-.54-.9-.46-1.43-.61Z" transform="translate(0 0.06)"/>
        <path class="b7a5b43e-501f-4567-ba1e-5b0d75e2856d" d="M16.47,45.54l.08-.37h.37c0,.22.11.42.14.62s.09.72.15,1.07c.13.76,0,1.23-.55,1.48s-1.06.14-1.65-.51l-1.39,1.42-.25-1.47.7.15.82-.73-.13-.84-.94.13-.51.62L13,45.58l.64.3V46Zm-1.25.74c.16.58-.06,1.25.59,1.52a1,1,0,0,0,.83-.19c.42-.47,0-1,0-1.55Z" transform="translate(0 0.06)"/>
        <path class="b7a5b43e-501f-4567-ba1e-5b0d75e2856d" d="M81.13,59.06l-.34-.73-2.36-1.12-.64.18-.1-.16c.32-.64.64-1.29,1-1.93A1,1,0,0,1,79,55a2.33,2.33,0,0,1,2.58.46,1.46,1.46,0,0,1,.44,1.9c-.21.49-.45,1-.68,1.45A3,3,0,0,1,81.13,59.06Zm-2.65-2.4,2.74,1.27c.25-.59.75-1.09.34-1.69a2.17,2.17,0,0,0-2-.94C78.83,55.36,78.8,56.1,78.48,56.66Z" transform="translate(0 0.06)"/>
        <path class="b7a5b43e-501f-4567-ba1e-5b0d75e2856d" d="M14.66,32.66l-.68.27.48-1.57.46.64h.56l.44-1.34-.45-.35-.74.25.42-1.34h.35v.46l2.35,1.8.56-.22.11.12-.3,1.14H14.69Zm1.63-1.78L16,32h1.74Z" transform="translate(0 0.06)"/>
        <path class="b7a5b43e-501f-4567-ba1e-5b0d75e2856d" d="M43.31,77.66l.45-.53.3-2.67-.43-.29c.11-.1.21-.26.29-.25a15.56,15.56,0,0,1,2.24.35,1.28,1.28,0,0,1,.78,1.4,4.86,4.86,0,0,1-.29,1.46,1.16,1.16,0,0,1-1.19.83c-.68,0-1.37-.1-2.05-.16Zm.95-.25c.67.07,1.34.41,1.77-.27a2.15,2.15,0,0,0,.19-2.2c-.33-.63-1-.45-1.61-.54Z" transform="translate(0 0.06)"/>
        <path class="b7a5b43e-501f-4567-ba1e-5b0d75e2856d" d="M20.22,57.72l.38-.7.62,1.13c-.59.66-1.18,1.32-1.74,2-.26.32-.7.54-.63,1.07l-.29.2-.65-1.11.31-.25.29.3.46-.5-.71-1.27-.54.06-.34.73-.7-1.23.14-.1a4.77,4.77,0,0,0,1,.08C18.63,58,19.44,57.85,20.22,57.72Zm-.89,1.82,1.06-1.22-.09-.12-1.55.27Z" transform="translate(0 0.06)"/>
        <path class="b7a5b43e-501f-4567-ba1e-5b0d75e2856d" d="M36.54,76l-1.32-.57v-.17l.57-.28.07-.55-1.4-.63-.34.4.15.64-.15.08L33,74.41l.15-.37.4,0,2-2.15-.15-.61.14-.08,1,.42C36.65,73.1,36.09,74.47,36.54,76Zm-.63-2,.1-1.62h-.13l-1.08,1.1Z" transform="translate(0 0.06)"/>
        <path class="b7a5b43e-501f-4567-ba1e-5b0d75e2856d" d="M29.27,71.29a3.11,3.11,0,0,1,1.3-2,1.51,1.51,0,0,1,1.78.21A1.23,1.23,0,0,1,32.92,71a6.89,6.89,0,0,1-1.08,1.73,1.25,1.25,0,0,1-1.63.16A1.56,1.56,0,0,1,29.27,71.29Zm3.16-.48a1,1,0,0,0-.57-1.15.8.8,0,0,0-1.05.08,6.67,6.67,0,0,0-1,1.66c-.08.23.19.67.41.91a.77.77,0,0,0,1,.14A2.9,2.9,0,0,0,32.43,70.81Z" transform="translate(0 0.06)"/>
        <path class="b7a5b43e-501f-4567-ba1e-5b0d75e2856d" d="M82.37,53.66c-.45-.13-.91-.22-1.34-.39a1.63,1.63,0,0,1,1-3.09,5.3,5.3,0,0,1,1.19.48A1.39,1.39,0,0,1,84,52.45,1.54,1.54,0,0,1,82.37,53.66Zm-.79-3a1.06,1.06,0,0,0-1.11.9.88.88,0,0,0,.54,1.1,5.81,5.81,0,0,0,1.42.42.91.91,0,0,0,1.07-.71s0,0,0,0A.88.88,0,0,0,83,51.17h0A12.11,12.11,0,0,0,81.58,50.66Z" transform="translate(0 0.06)"/>
        <path class="b7a5b43e-501f-4567-ba1e-5b0d75e2856d" d="M65.22,73.49a1.47,1.47,0,0,1-1,1.49,1.39,1.39,0,0,1-1.65-.16,3.14,3.14,0,0,1-1-2.22,1.39,1.39,0,0,1,1-1.32,1.36,1.36,0,0,1,1.64.17A3.32,3.32,0,0,1,65.22,73.49Zm-.5.38a3.39,3.39,0,0,0-.86-2,.89.89,0,0,0-1.1-.13c-.39.19-.74.52-.62.92A7.32,7.32,0,0,0,63,74.48a.7.7,0,0,0,1,.11h0a5,5,0,0,0,.66-.72Z" transform="translate(0 0.06)"/>
        <path class="b7a5b43e-501f-4567-ba1e-5b0d75e2856d" d="M75.82,60.66A1.61,1.61,0,0,1,77.35,59a1.58,1.58,0,0,1,.8.16,5.55,5.55,0,0,1,1.15.78,1.33,1.33,0,0,1,.44,1.55,1.69,1.69,0,0,1-1.23,1.21A2.66,2.66,0,0,1,75.82,60.66Zm2.26,1.48c.62,0,1-.18,1.08-.55a1.24,1.24,0,0,0,0-1,2.52,2.52,0,0,0-1.67-1.15.88.88,0,0,0-.94.4.91.91,0,0,0-.14,1.07,2.76,2.76,0,0,0,1.67,1.2Z" transform="translate(0 0.06)"/>
        <path class="b7a5b43e-501f-4567-ba1e-5b0d75e2856d" d="M50.73,75.87c0-1.29.56-1.86,1.78-1.82.91,0,1.42.61,1.53,1.75v.47c0,1.19-.46,1.72-1.58,1.82-.86.09-1.45-.44-1.67-1.5C50.76,76.36,50.76,76.11,50.73,75.87Zm2.78.24a7.62,7.62,0,0,0-.14-.81,1,1,0,0,0-1-.83,1,1,0,0,0-1,1,5.54,5.54,0,0,0,.2,1.62.86.86,0,0,0,1,.59C53.22,77.59,53.57,77.07,53.51,76.11Z" transform="translate(0 0.06)"/>
        <path class="b7a5b43e-501f-4567-ba1e-5b0d75e2856d" d="M13.69,43.82H13v-3l.5.42h2.75l.41-.44.16.07v2.81H16l-.09-.1.43-.41V41.83H15.22v1.66h-.48V41.87H13.38v1.32l.45.49Z" transform="translate(0 0.06)"/>
        <path class="b7a5b43e-501f-4567-ba1e-5b0d75e2856d" d="M83.86,31.35l-.84.31-.18-.35L83.3,31a5.33,5.33,0,0,0-.39-1.1.74.74,0,0,0-.63-.3.78.78,0,0,0-.44.53c-.08.43,0,.89-.08,1.33a.92.92,0,0,1-.85.86.91.91,0,0,1-1-.59,15.63,15.63,0,0,1-.49-1.65l.85-.31.16.37-.43.25c.09.55.11,1.12.69,1.41a.6.6,0,0,0,.63-.58.41.41,0,0,0,0-.11v-1a1,1,0,0,1,.78-1,1,1,0,0,1,1.2.51A17.44,17.44,0,0,1,83.86,31.35Z" transform="translate(0 0.06)"/>
        <path class="b7a5b43e-501f-4567-ba1e-5b0d75e2856d" d="M58,73.9l-.38.15-.22-.39L56.05,74l.29,1.28,1.59-.33.07.4-1.55.4.23,1,.53.34-.05.16-1.37.38.35-.78-.59-2.55L55,74V73.8l2.74-.64Z" transform="translate(0 0.06)"/>
        <path class="b7a5b43e-501f-4567-ba1e-5b0d75e2856d" d="M19.35,55.08l-.62.26L18.51,55l.37-.29a1.46,1.46,0,0,0-.82-1.48,2.76,2.76,0,0,0-2.19.83c-.3.43-.19,1,.34,1.68h.45l.12.36-.67.27a2.35,2.35,0,0,1-.74-2.5,3,3,0,0,1,2.85-1.15A2.22,2.22,0,0,1,19.35,55.08Z" transform="translate(0 0.06)"/>
        <path class="b7a5b43e-501f-4567-ba1e-5b0d75e2856d" d="M80.79,33.93l.71-.15v.4l-.36.15a1.72,1.72,0,0,0,.36,1.48,2.43,2.43,0,0,0,2.4-.22c.48-.39.5-1,0-1.82h-.42l-.13-.36.8-.15c.66,1.13.7,2.16.14,2.71a3.16,3.16,0,0,1-2.94.45A2.35,2.35,0,0,1,80.79,33.93Z" transform="translate(0 0.06)"/>
        <path class="b7a5b43e-501f-4567-ba1e-5b0d75e2856d" d="M67.22,15l-.84-.55,2.36-3.63.84.55Z" transform="translate(0 0.06)"/>
        <path class="b7a5b43e-501f-4567-ba1e-5b0d75e2856d" d="M62.91,7.81l.93.4-1.68,4-.92-.4C61.81,10.46,62.35,9.16,62.91,7.81Z" transform="translate(0 0.06)"/>
        <path class="b7a5b43e-501f-4567-ba1e-5b0d75e2856d" d="M71,66.43l-.39.34,1.81,2.14.82.17-1.17,1-.1-.7H72l-1.89-2.22-.49.4.17.37-.31.27L69,67.54l2.14-1.88.55.6v.14Z" transform="translate(0 0.06)"/>
        <path class="b7a5b43e-501f-4567-ba1e-5b0d75e2856d" d="M85.22,42.94l-.44-.42H82v.6l.38.11v.38h-.8V40.82h.8v.35L82,41.3v.63h2.89l.41-.36.11.09v1.18Z" transform="translate(0 0.06)"/>
        <path class="b7a5b43e-501f-4567-ba1e-5b0d75e2856d" d="M20.42,24.59a1,1,0,0,1-1,1h-.12a1.07,1.07,0,0,1,.1-2.14h0a1,1,0,0,1,1,1A.76.76,0,0,1,20.42,24.59Z" transform="translate(0 0.06)"/>
        <path class="b7a5b43e-501f-4567-ba1e-5b0d75e2856d" d="M79.08,25.66a1,1,0,0,1-1-1s0-.08,0-.11a1,1,0,0,1,1-1h.06a1.07,1.07,0,0,1,1.08,1,1,1,0,0,1-.88,1.1A1.13,1.13,0,0,1,79.08,25.66Z" transform="translate(0 0.06)"/>
        <path class="b7a5b43e-501f-4567-ba1e-5b0d75e2856d" d="M14,50.81l.38-.1.22.32,2.77-.74.13-.49c.62.2.39.78.66,1.14l-.36.2-.28-.34-2.8.76v.37l-.4.11Z" transform="translate(0 0.06)"/>
        <path class="b7a5b43e-501f-4567-ba1e-5b0d75e2856d" d="M85.22,37.79l.12,1.37-.7-.42L82.05,39l-.6.54-.13-1.33.36-.09.18.37,2.79-.27.39-.48Z" transform="translate(0 0.06)"/>
        <path class="b7a5b43e-501f-4567-ba1e-5b0d75e2856d" d="M84.74,78.66a2.43,2.43,0,0,1,1.68,0,.81.81,0,0,1,.39,1.09.54.54,0,0,1-.11.18.91.91,0,0,1-.21.18L87,81.76h-.48c-.28-.6-.09-1.63-1.32-1.37v1.34h-.47Zm.48,1.59a6.09,6.09,0,0,0,1.08-.47c.09-.06.07-.53,0-.58a5.16,5.16,0,0,0-1-.35Z" transform="translate(0 0.06)"/>
        <path class="b7a5b43e-501f-4567-ba1e-5b0d75e2856d" d="M24.32,48.07H35.7V45.93H23.9a25.67,25.67,0,0,1,50.32-9.88,23.8,23.8,0,0,1,.26,9.87H62.65v2.14H74.1a25.62,25.62,0,0,1-49.78,0Zm17-15.49c-.4-1.14-.8-2.24-1.19-3.35S39.34,27,39,25.87a3.59,3.59,0,0,0-4,1.81,29.05,29.05,0,0,0-1.26,2.79c-.29.7-.51,1.42-.78,2.17H31.09l-.58,1.67H32.4c-.66,1.8-1.27,3.53-1.94,5.23-.09.22-.47.35-.74.45a2.12,2.12,0,0,1-.71.06v1.4h5.27V40L32.74,40c.47-2,1.28-3.77,1.85-5.62h5.08c.58,1.67,1.17,3.34,1.74,5a2.22,2.22,0,0,1,0,.63L40.07,40v1.44h5.08c2,0,4.07,0,6.09-.11A4,4,0,0,0,55,38.51c.1-.31.18-.62.25-.94l.17.27a6.78,6.78,0,0,0,5.89,4,7.21,7.21,0,0,0,7.38-4.41,10.18,10.18,0,0,0,.65-5,7.32,7.32,0,0,0-14.53-.59c-.16.88-.2,1.77-.28,2.57l-1.92-1.26.15-.11a3.56,3.56,0,0,0,1.42-3.9,3.41,3.41,0,0,0-2.84-2.83,11.25,11.25,0,0,0-2.17-.22H42.47v1.38l1.39.13v5Zm13,28.62v-.06l.31-.28A4.26,4.26,0,0,0,56,57.39,5.32,5.32,0,0,0,53,53a8,8,0,0,0-5.25-.8,6.24,6.24,0,0,0-4.6,2.8,4.54,4.54,0,0,0,.4,5.63c.16.18.34.36.52.54-.9.2-1.61-.33-2.43-.61a1.42,1.42,0,0,0,.08.79,1.66,1.66,0,0,0,1.46.85H46.8c.11-.63-.28-.8-.66-1a4,4,0,0,1-2.2-3.49h4.25c.35,0,.48.29.48.62v1.72a1.2,1.2,0,0,1-.84,1.33.6.6,0,0,0-.48.71v0h8a1.56,1.56,0,0,0,1.39-1,3.48,3.48,0,0,0,.09-.79c-.9.5-1.59,1.06-2.48.85ZM39,45.49v2.93h2.24V47.9H39.66v-.66L41,47.17l-.06-.51H39.65v-.6h1.57l-.06-.57ZM56.91,48.4a8.65,8.65,0,0,0,1.25.06,1.16,1.16,0,0,0,1.05-1.18c.11-.86-.09-1.52-.65-1.69a2.37,2.37,0,0,0-1.24,0,.79.79,0,0,0-.54,1h0a.81.81,0,0,0,.77.78,8.34,8.34,0,0,0,1,0c-.15.6-.3.66-1.46.55Zm-3.82-1.06a.56.56,0,0,1-.53.57h-1v.39c1.29.59,2.27-.09,2.24-1.52a1.31,1.31,0,0,0-1.25-1.37,1.26,1.26,0,0,0-.63.13.92.92,0,0,0-.57,1,.81.81,0,0,0,.81.74A3.77,3.77,0,0,0,53.09,47.34Zm-10.87-1c.49-.58,1-.18,1.48-.27l.12-.58a11.37,11.37,0,0,0-1.43,0,.79.79,0,0,0-.74.8.83.83,0,0,0,.65.82l.91.3c-.06.57-.07.58-1.51.37l-.05.49a1.91,1.91,0,0,0,1.74.05,1.05,1.05,0,0,0,.48-.77c0-.25-.29-.54-.52-.74s-.42-.13-.63-.21Zm12.84,1.58c.36-.28.61-.46.84-.67.49-.43.62-.86.42-1.27A1.18,1.18,0,0,0,55,45.46c-.31.08-.61.18-.91.29l.15.39,1.41-.08.13.2a2.75,2.75,0,0,1-.34.66c-.33.33-.73.59-1.06.92a2.13,2.13,0,0,0-.3.58h2.28v-.51Zm-9.38-1.8,1-.06V45.5H44.05v.55l.94.07v2.29h.64Zm4.07.22v1.56l-.51.15.06.4h1.63v-.39l-.51-.19V45.34L49,46.07l.13.5Zm-3.27,2.12h.74a1.52,1.52,0,0,0-.17-.56.41.41,0,0,0-.4,0,2.18,2.18,0,0,0-.19.56Z" transform="translate(0 0.06)"/>
        <path class="b7a5b43e-501f-4567-ba1e-5b0d75e2856d" d="M57,33.8a9.18,9.18,0,0,1,.74-3.69,4.45,4.45,0,0,1,4.7-2.63c2.59.17,4,1.91,4.44,4.49a9.58,9.58,0,0,1-.5,5.11,4.74,4.74,0,0,1-8.85-.17,7.7,7.7,0,0,1-.34-1.25C57.05,35.05,57,34.42,57,33.8Z" transform="translate(0 0.06)"/>
        <path class="b7a5b43e-501f-4567-ba1e-5b0d75e2856d" d="M46.22,39.66V34.25a42.32,42.32,0,0,1,4.67.24c1.53.24,2,1.24,2,2.72a2.22,2.22,0,0,1-2,2.44h-.13C49.28,39.78,47.77,39.66,46.22,39.66Z" transform="translate(0 0.06)"/>
        <path class="b7a5b43e-501f-4567-ba1e-5b0d75e2856d" d="M46.22,32.54V27.81l.36-.06a35.68,35.68,0,0,1,3.58.12A1.93,1.93,0,0,1,52,29.66c.14,1.44-.3,2.3-1.39,2.72a1.91,1.91,0,0,1-.7.18Z" transform="translate(0 0.06)"/>
        <path class="b7a5b43e-501f-4567-ba1e-5b0d75e2856d" d="M39.05,32.58H35.29c.22-1.43,1.45-4.14,2.12-4.65Z" transform="translate(0 0.06)"/>
        <path class="b7a5b43e-501f-4567-ba1e-5b0d75e2856d" d="M43.92,34.34v5.19H43.8L42,34.31Z" transform="translate(0 0.06)"/>
        <path class="b7a5b43e-501f-4567-ba1e-5b0d75e2856d" d="M49.78,57.9a2.19,2.19,0,0,1,.56-.14h2.54c1.23,0,1.67.79,1,1.85a3.15,3.15,0,0,1-2.86,1.84,1.27,1.27,0,0,1-1.4-1.12,1.5,1.5,0,0,1,0-.3V58.27A2.26,2.26,0,0,1,49.78,57.9Z" transform="translate(0 0.06)"/>
        <path class="b7a5b43e-501f-4567-ba1e-5b0d75e2856d" d="M48.66,53.17v3.17c0,.15-.3.4-.47.41H44a3.86,3.86,0,0,1,1.93-2.88A4,4,0,0,1,48.66,53.17Z" transform="translate(0 0.06)"/>
        <path class="b7a5b43e-501f-4567-ba1e-5b0d75e2856d" d="M49.7,53.22a2,2,0,0,1,.53-.13,4.84,4.84,0,0,1,3.63,2.15c.56.89.24,1.48-.8,1.51s-1.84,0-2.76,0c-.32,0-.59-.09-.59-.44C49.68,55.32,49.7,54.3,49.7,53.22Z" transform="translate(0 0.06)"/>
        <path class="b7a5b43e-501f-4567-ba1e-5b0d75e2856d" d="M57.41,46.66V46.2c.62-.37,1-.24,1.16.42A.88.88,0,0,1,57.41,46.66Z" transform="translate(0 0.06)"/>
        <path class="b7a5b43e-501f-4567-ba1e-5b0d75e2856d" d="M53.08,46.66c-.57.33-.87.28-1.16-.22.07-.42.37-.5.72-.44a.48.48,0,0,1,.48.48A1.16,1.16,0,0,1,53.08,46.66Z" transform="translate(0 0.06)"/>
      </g>
    </g>
  </g>
</svg>
