<svg id="Layer_1" data-name="Layer 1" xmlns="http://www.w3.org/2000/svg" viewBox="0 0 300 300"><defs><style></style></defs><title>dots</title><circle class="cls-1" cx="7.5" cy="7.5" r="1.5"/><circle class="cls-1" cx="7.5" cy="22.5" r="1.5"/><circle class="cls-1" cx="7.5" cy="37.5" r="1.5"/><circle class="cls-1" cx="7.5" cy="52.5" r="1.5"/><circle class="cls-1" cx="7.5" cy="67.5" r="1.5"/><circle class="cls-1" cx="7.5" cy="82.5" r="1.5"/><circle class="cls-1" cx="7.5" cy="97.5" r="1.5"/><circle class="cls-1" cx="7.5" cy="112.5" r="1.5"/><circle class="cls-1" cx="7.5" cy="127.5" r="1.5"/><circle class="cls-1" cx="7.5" cy="142.5" r="1.5"/><circle class="cls-1" cx="7.5" cy="157.5" r="1.5"/><circle class="cls-1" cx="7.5" cy="172.5" r="1.5"/><circle class="cls-1" cx="7.5" cy="187.5" r="1.5"/><circle class="cls-1" cx="7.5" cy="202.5" r="1.5"/><circle class="cls-1" cx="7.5" cy="217.5" r="1.5"/><circle class="cls-1" cx="7.5" cy="232.5" r="1.5"/><circle class="cls-1" cx="7.5" cy="247.5" r="1.5"/><circle class="cls-1" cx="7.5" cy="262.5" r="1.5"/><circle class="cls-1" cx="7.5" cy="277.5" r="1.5"/><circle class="cls-1" cx="7.5" cy="292.5" r="1.5"/><circle class="cls-1" cx="22.5" cy="7.5" r="1.5"/><circle class="cls-1" cx="22.5" cy="22.5" r="1.5"/><circle class="cls-1" cx="22.5" cy="37.5" r="1.5"/><circle class="cls-1" cx="22.5" cy="52.5" r="1.5"/><circle class="cls-1" cx="22.5" cy="67.5" r="1.5"/><circle class="cls-1" cx="22.5" cy="82.5" r="1.5"/><circle class="cls-1" cx="22.5" cy="97.5" r="1.5"/><circle class="cls-1" cx="22.5" cy="112.5" r="1.5"/><circle class="cls-1" cx="22.5" cy="127.5" r="1.5"/><circle class="cls-1" cx="22.5" cy="142.5" r="1.5"/><circle class="cls-1" cx="22.5" cy="157.5" r="1.5"/><circle class="cls-1" cx="22.5" cy="172.5" r="1.5"/><circle class="cls-1" cx="22.5" cy="187.5" r="1.5"/><circle class="cls-1" cx="22.5" cy="202.5" r="1.5"/><circle class="cls-1" cx="22.5" cy="217.5" r="1.5"/><circle class="cls-1" cx="22.5" cy="232.5" r="1.5"/><circle class="cls-1" cx="22.5" cy="247.5" r="1.5"/><circle class="cls-1" cx="22.5" cy="262.5" r="1.5"/><circle class="cls-1" cx="22.5" cy="277.5" r="1.5"/><circle class="cls-1" cx="22.5" cy="292.5" r="1.5"/><circle class="cls-1" cx="37.5" cy="7.5" r="1.5"/><circle class="cls-1" cx="37.5" cy="22.5" r="1.5"/><circle class="cls-1" cx="37.5" cy="37.5" r="1.5"/><circle class="cls-1" cx="37.5" cy="52.5" r="1.5"/><circle class="cls-1" cx="37.5" cy="67.5" r="1.5"/><circle class="cls-1" cx="37.5" cy="82.5" r="1.5"/><circle class="cls-1" cx="37.5" cy="97.5" r="1.5"/><circle class="cls-1" cx="37.5" cy="112.5" r="1.5"/><circle class="cls-1" cx="37.5" cy="127.5" r="1.5"/><circle class="cls-1" cx="37.5" cy="142.5" r="1.5"/><circle class="cls-1" cx="37.5" cy="157.5" r="1.5"/><circle class="cls-1" cx="37.5" cy="172.5" r="1.5"/><circle class="cls-1" cx="37.5" cy="187.5" r="1.5"/><circle class="cls-1" cx="37.5" cy="202.5" r="1.5"/><circle class="cls-1" cx="37.5" cy="217.5" r="1.5"/><circle class="cls-1" cx="37.5" cy="232.5" r="1.5"/><circle class="cls-1" cx="37.5" cy="247.5" r="1.5"/><circle class="cls-1" cx="37.5" cy="262.5" r="1.5"/><circle class="cls-1" cx="37.5" cy="277.5" r="1.5"/><circle class="cls-1" cx="37.5" cy="292.5" r="1.5"/><circle class="cls-1" cx="52.5" cy="7.5" r="1.5"/><circle class="cls-1" cx="52.5" cy="22.5" r="1.5"/><circle class="cls-1" cx="52.5" cy="37.5" r="1.5"/><circle class="cls-1" cx="52.5" cy="52.5" r="1.5"/><circle class="cls-1" cx="52.5" cy="67.5" r="1.5"/><circle class="cls-1" cx="52.5" cy="82.5" r="1.5"/><circle class="cls-1" cx="52.5" cy="97.5" r="1.5"/><circle class="cls-1" cx="52.5" cy="112.5" r="1.5"/><circle class="cls-1" cx="52.5" cy="127.5" r="1.5"/><circle class="cls-1" cx="52.5" cy="142.5" r="1.5"/><circle class="cls-1" cx="52.5" cy="157.5" r="1.5"/><circle class="cls-1" cx="52.5" cy="172.5" r="1.5"/><circle class="cls-1" cx="52.5" cy="187.5" r="1.5"/><circle class="cls-1" cx="52.5" cy="202.5" r="1.5"/><circle class="cls-1" cx="52.5" cy="217.5" r="1.5"/><circle class="cls-1" cx="52.5" cy="232.5" r="1.5"/><circle class="cls-1" cx="52.5" cy="247.5" r="1.5"/><circle class="cls-1" cx="52.5" cy="262.5" r="1.5"/><circle class="cls-1" cx="52.5" cy="277.5" r="1.5"/><circle class="cls-1" cx="52.5" cy="292.5" r="1.5"/><circle class="cls-1" cx="67.5" cy="7.5" r="1.5"/><circle class="cls-1" cx="67.5" cy="22.5" r="1.5"/><circle class="cls-1" cx="67.5" cy="37.5" r="1.5"/><circle class="cls-1" cx="67.5" cy="52.5" r="1.5"/><circle class="cls-1" cx="67.5" cy="67.5" r="1.5"/><circle class="cls-1" cx="67.5" cy="82.5" r="1.5"/><circle class="cls-1" cx="67.5" cy="97.5" r="1.5"/><circle class="cls-1" cx="67.5" cy="112.5" r="1.5"/><circle class="cls-1" cx="67.5" cy="127.5" r="1.5"/><circle class="cls-1" cx="67.5" cy="142.5" r="1.5"/><circle class="cls-1" cx="67.5" cy="157.5" r="1.5"/><circle class="cls-1" cx="67.5" cy="172.5" r="1.5"/><circle class="cls-1" cx="67.5" cy="187.5" r="1.5"/><circle class="cls-1" cx="67.5" cy="202.5" r="1.5"/><circle class="cls-1" cx="67.5" cy="217.5" r="1.5"/><circle class="cls-1" cx="67.5" cy="232.5" r="1.5"/><circle class="cls-1" cx="67.5" cy="247.5" r="1.5"/><circle class="cls-1" cx="67.5" cy="262.5" r="1.5"/><circle class="cls-1" cx="67.5" cy="277.5" r="1.5"/><circle class="cls-1" cx="67.5" cy="292.5" r="1.5"/><circle class="cls-1" cx="82.5" cy="7.5" r="1.5"/><circle class="cls-1" cx="82.5" cy="22.5" r="1.5"/><circle class="cls-1" cx="82.5" cy="37.5" r="1.5"/><circle class="cls-1" cx="82.5" cy="52.5" r="1.5"/><circle class="cls-1" cx="82.5" cy="67.5" r="1.5"/><circle class="cls-1" cx="82.5" cy="82.5" r="1.5"/><circle class="cls-1" cx="82.5" cy="97.5" r="1.5"/><circle class="cls-1" cx="82.5" cy="112.5" r="1.5"/><circle class="cls-1" cx="82.5" cy="127.5" r="1.5"/><circle class="cls-1" cx="82.5" cy="142.5" r="1.5"/><circle class="cls-1" cx="82.5" cy="157.5" r="1.5"/><circle class="cls-1" cx="82.5" cy="172.5" r="1.5"/><circle class="cls-1" cx="82.5" cy="187.5" r="1.5"/><circle class="cls-1" cx="82.5" cy="202.5" r="1.5"/><circle class="cls-1" cx="82.5" cy="217.5" r="1.5"/><circle class="cls-1" cx="82.5" cy="232.5" r="1.5"/><circle class="cls-1" cx="82.5" cy="247.5" r="1.5"/><circle class="cls-1" cx="82.5" cy="262.5" r="1.5"/><circle class="cls-1" cx="82.5" cy="277.5" r="1.5"/><circle class="cls-1" cx="82.5" cy="292.5" r="1.5"/><circle class="cls-1" cx="97.5" cy="7.5" r="1.5"/><circle class="cls-1" cx="97.5" cy="22.5" r="1.5"/><circle class="cls-1" cx="97.5" cy="37.5" r="1.5"/><circle class="cls-1" cx="97.5" cy="52.5" r="1.5"/><circle class="cls-1" cx="97.5" cy="67.5" r="1.5"/><circle class="cls-1" cx="97.5" cy="82.5" r="1.5"/><circle class="cls-1" cx="97.5" cy="97.5" r="1.5"/><circle class="cls-1" cx="97.5" cy="112.5" r="1.5"/><circle class="cls-1" cx="97.5" cy="127.5" r="1.5"/><circle class="cls-1" cx="97.5" cy="142.5" r="1.5"/><circle class="cls-1" cx="97.5" cy="157.5" r="1.5"/><circle class="cls-1" cx="97.5" cy="172.5" r="1.5"/><circle class="cls-1" cx="97.5" cy="187.5" r="1.5"/><circle class="cls-1" cx="97.5" cy="202.5" r="1.5"/><circle class="cls-1" cx="97.5" cy="217.5" r="1.5"/><circle class="cls-1" cx="97.5" cy="232.5" r="1.5"/><circle class="cls-1" cx="97.5" cy="247.5" r="1.5"/><circle class="cls-1" cx="97.5" cy="262.5" r="1.5"/><circle class="cls-1" cx="97.5" cy="277.5" r="1.5"/><circle class="cls-1" cx="97.5" cy="292.5" r="1.5"/><circle class="cls-1" cx="112.5" cy="7.5" r="1.5"/><circle class="cls-1" cx="112.5" cy="22.5" r="1.5"/><circle class="cls-1" cx="112.5" cy="37.5" r="1.5"/><circle class="cls-1" cx="112.5" cy="52.5" r="1.5"/><circle class="cls-1" cx="112.5" cy="67.5" r="1.5"/><circle class="cls-1" cx="112.5" cy="82.5" r="1.5"/><circle class="cls-1" cx="112.5" cy="97.5" r="1.5"/><circle class="cls-1" cx="112.5" cy="112.5" r="1.5"/><circle class="cls-1" cx="112.5" cy="127.5" r="1.5"/><circle class="cls-1" cx="112.5" cy="142.5" r="1.5"/><circle class="cls-1" cx="112.5" cy="157.5" r="1.5"/><circle class="cls-1" cx="112.5" cy="172.5" r="1.5"/><circle class="cls-1" cx="112.5" cy="187.5" r="1.5"/><circle class="cls-1" cx="112.5" cy="202.5" r="1.5"/><circle class="cls-1" cx="112.5" cy="217.5" r="1.5"/><circle class="cls-1" cx="112.5" cy="232.5" r="1.5"/><circle class="cls-1" cx="112.5" cy="247.5" r="1.5"/><circle class="cls-1" cx="112.5" cy="262.5" r="1.5"/><circle class="cls-1" cx="112.5" cy="277.5" r="1.5"/><circle class="cls-1" cx="112.5" cy="292.5" r="1.5"/><circle class="cls-1" cx="127.5" cy="7.5" r="1.5"/><circle class="cls-1" cx="127.5" cy="22.5" r="1.5"/><circle class="cls-1" cx="127.5" cy="37.5" r="1.5"/><circle class="cls-1" cx="127.5" cy="52.5" r="1.5"/><circle class="cls-1" cx="127.5" cy="67.5" r="1.5"/><circle class="cls-1" cx="127.5" cy="82.5" r="1.5"/><circle class="cls-1" cx="127.5" cy="97.5" r="1.5"/><circle class="cls-1" cx="127.5" cy="112.5" r="1.5"/><circle class="cls-1" cx="127.5" cy="127.5" r="1.5"/><circle class="cls-1" cx="127.5" cy="142.5" r="1.5"/><circle class="cls-1" cx="127.5" cy="157.5" r="1.5"/><circle class="cls-1" cx="127.5" cy="172.5" r="1.5"/><circle class="cls-1" cx="127.5" cy="187.5" r="1.5"/><circle class="cls-1" cx="127.5" cy="202.5" r="1.5"/><circle class="cls-1" cx="127.5" cy="217.5" r="1.5"/><circle class="cls-1" cx="127.5" cy="232.5" r="1.5"/><circle class="cls-1" cx="127.5" cy="247.5" r="1.5"/><circle class="cls-1" cx="127.5" cy="262.5" r="1.5"/><circle class="cls-1" cx="127.5" cy="277.5" r="1.5"/><circle class="cls-1" cx="127.5" cy="292.5" r="1.5"/><circle class="cls-1" cx="142.5" cy="7.5" r="1.5"/><circle class="cls-1" cx="142.5" cy="22.5" r="1.5"/><circle class="cls-1" cx="142.5" cy="37.5" r="1.5"/><circle class="cls-1" cx="142.5" cy="52.5" r="1.5"/><circle class="cls-1" cx="142.5" cy="67.5" r="1.5"/><circle class="cls-1" cx="142.5" cy="82.5" r="1.5"/><circle class="cls-1" cx="142.5" cy="97.5" r="1.5"/><circle class="cls-1" cx="142.5" cy="112.5" r="1.5"/><circle class="cls-1" cx="142.5" cy="127.5" r="1.5"/><circle class="cls-1" cx="142.5" cy="142.5" r="1.5"/><circle class="cls-1" cx="142.5" cy="157.5" r="1.5"/><circle class="cls-1" cx="142.5" cy="172.5" r="1.5"/><circle class="cls-1" cx="142.5" cy="187.5" r="1.5"/><circle class="cls-1" cx="142.5" cy="202.5" r="1.5"/><circle class="cls-1" cx="142.5" cy="217.5" r="1.5"/><circle class="cls-1" cx="142.5" cy="232.5" r="1.5"/><circle class="cls-1" cx="142.5" cy="247.5" r="1.5"/><circle class="cls-1" cx="142.5" cy="262.5" r="1.5"/><circle class="cls-1" cx="142.5" cy="277.5" r="1.5"/><circle class="cls-1" cx="142.5" cy="292.5" r="1.5"/><circle class="cls-1" cx="157.5" cy="7.5" r="1.5"/><circle class="cls-1" cx="157.5" cy="22.5" r="1.5"/><circle class="cls-1" cx="157.5" cy="37.5" r="1.5"/><circle class="cls-1" cx="157.5" cy="52.5" r="1.5"/><circle class="cls-1" cx="157.5" cy="67.5" r="1.5"/><circle class="cls-1" cx="157.5" cy="82.5" r="1.5"/><circle class="cls-1" cx="157.5" cy="97.5" r="1.5"/><circle class="cls-1" cx="157.5" cy="112.5" r="1.5"/><circle class="cls-1" cx="157.5" cy="127.5" r="1.5"/><circle class="cls-1" cx="157.5" cy="142.5" r="1.5"/><circle class="cls-1" cx="157.5" cy="157.5" r="1.5"/><circle class="cls-1" cx="157.5" cy="172.5" r="1.5"/><circle class="cls-1" cx="157.5" cy="187.5" r="1.5"/><circle class="cls-1" cx="157.5" cy="202.5" r="1.5"/><circle class="cls-1" cx="157.5" cy="217.5" r="1.5"/><circle class="cls-1" cx="157.5" cy="232.5" r="1.5"/><circle class="cls-1" cx="157.5" cy="247.5" r="1.5"/><circle class="cls-1" cx="157.5" cy="262.5" r="1.5"/><circle class="cls-1" cx="157.5" cy="277.5" r="1.5"/><circle class="cls-1" cx="157.5" cy="292.5" r="1.5"/><circle class="cls-1" cx="172.5" cy="7.5" r="1.5"/><circle class="cls-1" cx="172.5" cy="22.5" r="1.5"/><circle class="cls-1" cx="172.5" cy="37.5" r="1.5"/><circle class="cls-1" cx="172.5" cy="52.5" r="1.5"/><circle class="cls-1" cx="172.5" cy="67.5" r="1.5"/><circle class="cls-1" cx="172.5" cy="82.5" r="1.5"/><circle class="cls-1" cx="172.5" cy="97.5" r="1.5"/><circle class="cls-1" cx="172.5" cy="112.5" r="1.5"/><circle class="cls-1" cx="172.5" cy="127.5" r="1.5"/><circle class="cls-1" cx="172.5" cy="142.5" r="1.5"/><circle class="cls-1" cx="172.5" cy="157.5" r="1.5"/><circle class="cls-1" cx="172.5" cy="172.5" r="1.5"/><circle class="cls-1" cx="172.5" cy="187.5" r="1.5"/><circle class="cls-1" cx="172.5" cy="202.5" r="1.5"/><circle class="cls-1" cx="172.5" cy="217.5" r="1.5"/><circle class="cls-1" cx="172.5" cy="232.5" r="1.5"/><circle class="cls-1" cx="172.5" cy="247.5" r="1.5"/><circle class="cls-1" cx="172.5" cy="262.5" r="1.5"/><circle class="cls-1" cx="172.5" cy="277.5" r="1.5"/><circle class="cls-1" cx="172.5" cy="292.5" r="1.5"/><circle class="cls-1" cx="187.5" cy="7.5" r="1.5"/><circle class="cls-1" cx="187.5" cy="22.5" r="1.5"/><circle class="cls-1" cx="187.5" cy="37.5" r="1.5"/><circle class="cls-1" cx="187.5" cy="52.5" r="1.5"/><circle class="cls-1" cx="187.5" cy="67.5" r="1.5"/><circle class="cls-1" cx="187.5" cy="82.5" r="1.5"/><circle class="cls-1" cx="187.5" cy="97.5" r="1.5"/><circle class="cls-1" cx="187.5" cy="112.5" r="1.5"/><circle class="cls-1" cx="187.5" cy="127.5" r="1.5"/><circle class="cls-1" cx="187.5" cy="142.5" r="1.5"/><circle class="cls-1" cx="187.5" cy="157.5" r="1.5"/><circle class="cls-1" cx="187.5" cy="172.5" r="1.5"/><circle class="cls-1" cx="187.5" cy="187.5" r="1.5"/><circle class="cls-1" cx="187.5" cy="202.5" r="1.5"/><circle class="cls-1" cx="187.5" cy="217.5" r="1.5"/><circle class="cls-1" cx="187.5" cy="232.5" r="1.5"/><circle class="cls-1" cx="187.5" cy="247.5" r="1.5"/><circle class="cls-1" cx="187.5" cy="262.5" r="1.5"/><circle class="cls-1" cx="187.5" cy="277.5" r="1.5"/><circle class="cls-1" cx="187.5" cy="292.5" r="1.5"/><circle class="cls-1" cx="202.5" cy="7.5" r="1.5"/><circle class="cls-1" cx="202.5" cy="22.5" r="1.5"/><circle class="cls-1" cx="202.5" cy="37.5" r="1.5"/><circle class="cls-1" cx="202.5" cy="52.5" r="1.5"/><circle class="cls-1" cx="202.5" cy="67.5" r="1.5"/><circle class="cls-1" cx="202.5" cy="82.5" r="1.5"/><circle class="cls-1" cx="202.5" cy="97.5" r="1.5"/><circle class="cls-1" cx="202.5" cy="112.5" r="1.5"/><circle class="cls-1" cx="202.5" cy="127.5" r="1.5"/><circle class="cls-1" cx="202.5" cy="142.5" r="1.5"/><circle class="cls-1" cx="202.5" cy="157.5" r="1.5"/><circle class="cls-1" cx="202.5" cy="172.5" r="1.5"/><circle class="cls-1" cx="202.5" cy="187.5" r="1.5"/><circle class="cls-1" cx="202.5" cy="202.5" r="1.5"/><circle class="cls-1" cx="202.5" cy="217.5" r="1.5"/><circle class="cls-1" cx="202.5" cy="232.5" r="1.5"/><circle class="cls-1" cx="202.5" cy="247.5" r="1.5"/><circle class="cls-1" cx="202.5" cy="262.5" r="1.5"/><circle class="cls-1" cx="202.5" cy="277.5" r="1.5"/><circle class="cls-1" cx="202.5" cy="292.5" r="1.5"/><circle class="cls-1" cx="217.5" cy="7.5" r="1.5"/><circle class="cls-1" cx="217.5" cy="22.5" r="1.5"/><circle class="cls-1" cx="217.5" cy="37.5" r="1.5"/><circle class="cls-1" cx="217.5" cy="52.5" r="1.5"/><circle class="cls-1" cx="217.5" cy="67.5" r="1.5"/><circle class="cls-1" cx="217.5" cy="82.5" r="1.5"/><circle class="cls-1" cx="217.5" cy="97.5" r="1.5"/><circle class="cls-1" cx="217.5" cy="112.5" r="1.5"/><circle class="cls-1" cx="217.5" cy="127.5" r="1.5"/><circle class="cls-1" cx="217.5" cy="142.5" r="1.5"/><circle class="cls-1" cx="217.5" cy="157.5" r="1.5"/><circle class="cls-1" cx="217.5" cy="172.5" r="1.5"/><circle class="cls-1" cx="217.5" cy="187.5" r="1.5"/><circle class="cls-1" cx="217.5" cy="202.5" r="1.5"/><circle class="cls-1" cx="217.5" cy="217.5" r="1.5"/><circle class="cls-1" cx="217.5" cy="232.5" r="1.5"/><circle class="cls-1" cx="217.5" cy="247.5" r="1.5"/><circle class="cls-1" cx="217.5" cy="262.5" r="1.5"/><circle class="cls-1" cx="217.5" cy="277.5" r="1.5"/><circle class="cls-1" cx="217.5" cy="292.5" r="1.5"/><circle class="cls-1" cx="232.5" cy="7.5" r="1.5"/><circle class="cls-1" cx="232.5" cy="22.5" r="1.5"/><circle class="cls-1" cx="232.5" cy="37.5" r="1.5"/><circle class="cls-1" cx="232.5" cy="52.5" r="1.5"/><circle class="cls-1" cx="232.5" cy="67.5" r="1.5"/><circle class="cls-1" cx="232.5" cy="82.5" r="1.5"/><circle class="cls-1" cx="232.5" cy="97.5" r="1.5"/><circle class="cls-1" cx="232.5" cy="112.5" r="1.5"/><circle class="cls-1" cx="232.5" cy="127.5" r="1.5"/><circle class="cls-1" cx="232.5" cy="142.5" r="1.5"/><circle class="cls-1" cx="232.5" cy="157.5" r="1.5"/><circle class="cls-1" cx="232.5" cy="172.5" r="1.5"/><circle class="cls-1" cx="232.5" cy="187.5" r="1.5"/><circle class="cls-1" cx="232.5" cy="202.5" r="1.5"/><circle class="cls-1" cx="232.5" cy="217.5" r="1.5"/><circle class="cls-1" cx="232.5" cy="232.5" r="1.5"/><circle class="cls-1" cx="232.5" cy="247.5" r="1.5"/><circle class="cls-1" cx="232.5" cy="262.5" r="1.5"/><circle class="cls-1" cx="232.5" cy="277.5" r="1.5"/><circle class="cls-1" cx="232.5" cy="292.5" r="1.5"/><circle class="cls-1" cx="247.5" cy="7.5" r="1.5"/><circle class="cls-1" cx="247.5" cy="22.5" r="1.5"/><circle class="cls-1" cx="247.5" cy="37.5" r="1.5"/><circle class="cls-1" cx="247.5" cy="52.5" r="1.5"/><circle class="cls-1" cx="247.5" cy="67.5" r="1.5"/><circle class="cls-1" cx="247.5" cy="82.5" r="1.5"/><circle class="cls-1" cx="247.5" cy="97.5" r="1.5"/><circle class="cls-1" cx="247.5" cy="112.5" r="1.5"/><circle class="cls-1" cx="247.5" cy="127.5" r="1.5"/><circle class="cls-1" cx="247.5" cy="142.5" r="1.5"/><circle class="cls-1" cx="247.5" cy="157.5" r="1.5"/><circle class="cls-1" cx="247.5" cy="172.5" r="1.5"/><circle class="cls-1" cx="247.5" cy="187.5" r="1.5"/><circle class="cls-1" cx="247.5" cy="202.5" r="1.5"/><circle class="cls-1" cx="247.5" cy="217.5" r="1.5"/><circle class="cls-1" cx="247.5" cy="232.5" r="1.5"/><circle class="cls-1" cx="247.5" cy="247.5" r="1.5"/><circle class="cls-1" cx="247.5" cy="262.5" r="1.5"/><circle class="cls-1" cx="247.5" cy="277.5" r="1.5"/><circle class="cls-1" cx="247.5" cy="292.5" r="1.5"/><circle class="cls-1" cx="262.5" cy="7.5" r="1.5"/><circle class="cls-1" cx="262.5" cy="22.5" r="1.5"/><circle class="cls-1" cx="262.5" cy="37.5" r="1.5"/><circle class="cls-1" cx="262.5" cy="52.5" r="1.5"/><circle class="cls-1" cx="262.5" cy="67.5" r="1.5"/><circle class="cls-1" cx="262.5" cy="82.5" r="1.5"/><circle class="cls-1" cx="262.5" cy="97.5" r="1.5"/><circle class="cls-1" cx="262.5" cy="112.5" r="1.5"/><circle class="cls-1" cx="262.5" cy="127.5" r="1.5"/><circle class="cls-1" cx="262.5" cy="142.5" r="1.5"/><circle class="cls-1" cx="262.5" cy="157.5" r="1.5"/><circle class="cls-1" cx="262.5" cy="172.5" r="1.5"/><circle class="cls-1" cx="262.5" cy="187.5" r="1.5"/><circle class="cls-1" cx="262.5" cy="202.5" r="1.5"/><circle class="cls-1" cx="262.5" cy="217.5" r="1.5"/><circle class="cls-1" cx="262.5" cy="232.5" r="1.5"/><circle class="cls-1" cx="262.5" cy="247.5" r="1.5"/><circle class="cls-1" cx="262.5" cy="262.5" r="1.5"/><circle class="cls-1" cx="262.5" cy="277.5" r="1.5"/><circle class="cls-1" cx="262.5" cy="292.5" r="1.5"/><circle class="cls-1" cx="277.5" cy="7.5" r="1.5"/><circle class="cls-1" cx="277.5" cy="22.5" r="1.5"/><circle class="cls-1" cx="277.5" cy="37.5" r="1.5"/><circle class="cls-1" cx="277.5" cy="52.5" r="1.5"/><circle class="cls-1" cx="277.5" cy="67.5" r="1.5"/><circle class="cls-1" cx="277.5" cy="82.5" r="1.5"/><circle class="cls-1" cx="277.5" cy="97.5" r="1.5"/><circle class="cls-1" cx="277.5" cy="112.5" r="1.5"/><circle class="cls-1" cx="277.5" cy="127.5" r="1.5"/><circle class="cls-1" cx="277.5" cy="142.5" r="1.5"/><circle class="cls-1" cx="277.5" cy="157.5" r="1.5"/><circle class="cls-1" cx="277.5" cy="172.5" r="1.5"/><circle class="cls-1" cx="277.5" cy="187.5" r="1.5"/><circle class="cls-1" cx="277.5" cy="202.5" r="1.5"/><circle class="cls-1" cx="277.5" cy="217.5" r="1.5"/><circle class="cls-1" cx="277.5" cy="232.5" r="1.5"/><circle class="cls-1" cx="277.5" cy="247.5" r="1.5"/><circle class="cls-1" cx="277.5" cy="262.5" r="1.5"/><circle class="cls-1" cx="277.5" cy="277.5" r="1.5"/><circle class="cls-1" cx="277.5" cy="292.5" r="1.5"/><circle class="cls-1" cx="292.5" cy="7.5" r="1.5"/><circle class="cls-1" cx="292.5" cy="22.5" r="1.5"/><circle class="cls-1" cx="292.5" cy="37.5" r="1.5"/><circle class="cls-1" cx="292.5" cy="52.5" r="1.5"/><circle class="cls-1" cx="292.5" cy="67.5" r="1.5"/><circle class="cls-1" cx="292.5" cy="82.5" r="1.5"/><circle class="cls-1" cx="292.5" cy="97.5" r="1.5"/><circle class="cls-1" cx="292.5" cy="112.5" r="1.5"/><circle class="cls-1" cx="292.5" cy="127.5" r="1.5"/><circle class="cls-1" cx="292.5" cy="142.5" r="1.5"/><circle class="cls-1" cx="292.5" cy="157.5" r="1.5"/><circle class="cls-1" cx="292.5" cy="172.5" r="1.5"/><circle class="cls-1" cx="292.5" cy="187.5" r="1.5"/><circle class="cls-1" cx="292.5" cy="202.5" r="1.5"/><circle class="cls-1" cx="292.5" cy="217.5" r="1.5"/><circle class="cls-1" cx="292.5" cy="232.5" r="1.5"/><circle class="cls-1" cx="292.5" cy="247.5" r="1.5"/><circle class="cls-1" cx="292.5" cy="262.5" r="1.5"/><circle class="cls-1" cx="292.5" cy="277.5" r="1.5"/><circle class="cls-1" cx="292.5" cy="292.5" r="1.5"/></svg>
