<svg xmlns="http://www.w3.org/2000/svg" viewBox="0 0 778.25 178.64"><defs><style>.ae52d935-8d59-48b6-b889-c6a52c9567ff{fill:#1c6ca2;}.b4df7191-9545-421a-a29a-5f52a69d531a{fill:#2180b3;}.b7d80303-a566-43e8-b743-25832b0c0470{fill:#299fc0;}.b8d00e32-31dd-4a79-914d-5a624aa31968{fill:#1e68a1;}</style></defs><title>Invisalign-Logo</title><g id="fdee5907-f708-4407-9d1f-d2825930222c" data-name="Layer 2"><g id="e8a0ef0c-e834-4104-ad45-fc3dfa5cc2c1" data-name="Layer 1"><path class="ae52d935-8d59-48b6-b889-c6a52c9567ff" d="M103.53,101.23s-1,35.1,49,49C138.07,100.28,103.53,101.23,103.53,101.23Z"/><path class="ae52d935-8d59-48b6-b889-c6a52c9567ff" d="M75.1,73s1-35.09-49-49C40.57,74,75.1,73,75.1,73Z"/><path class="ae52d935-8d59-48b6-b889-c6a52c9567ff" d="M89.4,109.34s-25.49,24.14,0,69.3C114.5,133.08,89.4,109.34,89.4,109.34Z"/><path class="ae52d935-8d59-48b6-b889-c6a52c9567ff" d="M89.23,69.3s25.49-24.14,0-69.3C64.14,45.55,89.23,69.3,89.23,69.3Z"/><path class="ae52d935-8d59-48b6-b889-c6a52c9567ff" d="M109.34,89.23s24.13,25.49,69.29,0C133.08,64.14,109.34,89.23,109.34,89.23Z"/><path class="ae52d935-8d59-48b6-b889-c6a52c9567ff" d="M69.3,89.4S45.16,63.92,0,89.4C45.55,114.5,69.3,89.4,69.3,89.4Z"/><path class="ae52d935-8d59-48b6-b889-c6a52c9567ff" d="M103.41,72.92s35.09,1,49-49C102.46,38.39,103.41,72.92,103.41,72.92Z"/><path class="ae52d935-8d59-48b6-b889-c6a52c9567ff" d="M75.22,101.36s-35.09-1-49,49C76.17,135.89,75.22,101.36,75.22,101.36Z"/><path class="b4df7191-9545-421a-a29a-5f52a69d531a" d="M142.18,126.45c-16.27-25.81-38.65-25.22-38.65-25.22s-.61,22.9,25.51,39A64.34,64.34,0,0,0,142.18,126.45Z"/><path class="b4df7191-9545-421a-a29a-5f52a69d531a" d="M75.1,73s.55-21-22.37-37A65.16,65.16,0,0,0,38,50.12C54.06,73.62,75.1,73,75.1,73Z"/><path class="b4df7191-9545-421a-a29a-5f52a69d531a" d="M89.4,109.34s-16,15.14-10,43.85a65.32,65.32,0,0,0,19.74,0C105.16,124.29,89.4,109.34,89.4,109.34Z"/><path class="b4df7191-9545-421a-a29a-5f52a69d531a" d="M89.23,69.3s16-15.15,10-43.86a65.25,65.25,0,0,0-19.73,0C73.47,54.35,89.23,69.3,89.23,69.3Z"/><path class="b4df7191-9545-421a-a29a-5f52a69d531a" d="M109.34,89.23s15.14,16,43.85,10a65.32,65.32,0,0,0,0-19.74C124.29,73.48,109.34,89.23,109.34,89.23Z"/><path class="b4df7191-9545-421a-a29a-5f52a69d531a" d="M69.3,89.4s-15.14-16-43.86-10a65.32,65.32,0,0,0,0,19.74C54.35,105.16,69.3,89.4,69.3,89.4Z"/><path class="b4df7191-9545-421a-a29a-5f52a69d531a" d="M103.41,72.92s21.3.57,37.28-22.78a64.7,64.7,0,0,0-14.77-14.07C102.86,52.14,103.41,72.92,103.41,72.92Z"/><path class="b4df7191-9545-421a-a29a-5f52a69d531a" d="M75.22,101.36s-22.66-.6-38.78,25.09a65.07,65.07,0,0,0,13.15,13.82C75.84,124,75.22,101.36,75.22,101.36Z"/><path class="b7d80303-a566-43e8-b743-25832b0c0470" d="M127.32,110.11c-12.42-9.18-23.79-8.88-23.79-8.88s-.29,11.83,9.23,24.48a43.32,43.32,0,0,0,14.56-15.6Z"/><path class="b7d80303-a566-43e8-b743-25832b0c0470" d="M75.1,73S75.34,63,68,51.59A43.51,43.51,0,0,0,53.17,65.46C64.84,73.3,75.1,73,75.1,73Z"/><path class="b7d80303-a566-43e8-b743-25832b0c0470" d="M89.4,109.34s-7.9,7.51-10.49,22a42.06,42.06,0,0,0,20.85,0C97.25,116.78,89.4,109.34,89.4,109.34Z"/><path class="b7d80303-a566-43e8-b743-25832b0c0470" d="M89.23,69.3s7.91-7.52,10.5-22A44.12,44.12,0,0,0,89.31,46a43.23,43.23,0,0,0-10.44,1.32C81.39,61.85,89.23,69.3,89.23,69.3Z"/><path class="b7d80303-a566-43e8-b743-25832b0c0470" d="M131.31,78.87c-14.53,2.52-22,10.36-22,10.36s7.52,7.91,22,10.5a44,44,0,0,0,1.31-10.41A42.39,42.39,0,0,0,131.31,78.87Z"/><path class="b7d80303-a566-43e8-b743-25832b0c0470" d="M69.3,89.4s-7.52-7.91-22-10.49a41.64,41.64,0,0,0,0,20.86C61.85,97.24,69.3,89.4,69.3,89.4Z"/><path class="b7d80303-a566-43e8-b743-25832b0c0470" d="M110.58,51.6c-7.41,11.41-7.17,21.32-7.17,21.32s10.35.26,22-7.49A43.65,43.65,0,0,0,110.58,51.6Z"/><path class="b7d80303-a566-43e8-b743-25832b0c0470" d="M75.22,101.36s-11.47-.31-23.9,8.77a43.48,43.48,0,0,0,14.57,15.59C75.52,113.07,75.22,101.36,75.22,101.36Z"/><path class="b8d00e32-31dd-4a79-914d-5a624aa31968" d="M508.2,119.08v-9.56a29.09,29.09,0,0,1-9.43,6.66,27.63,27.63,0,0,1-11.09,2.25q-13.8,0-22.91-9.22t-9.11-23.1a33,33,0,0,1,2.28-12.27,30.72,30.72,0,0,1,6.5-10.19,29.87,29.87,0,0,1,10.09-7.17A31.89,31.89,0,0,1,487,54.16a29.61,29.61,0,0,1,11.57,2.23,29,29,0,0,1,9.62,6.77V55.79h12.18v63.29ZM468.27,86A20.14,20.14,0,0,0,474,100.67a19,19,0,0,0,14.14,5.91,18.39,18.39,0,0,0,13.46-5.93,19.26,19.26,0,0,0,5.82-13.89,20.18,20.18,0,0,0-5.78-14.5A18.29,18.29,0,0,0,488,66.2,19.68,19.68,0,0,0,468.27,86Z"/><path class="b8d00e32-31dd-4a79-914d-5a624aa31968" d="M637.5,146.58c-13.32,6.23-34.82-3.87-34.82-3.87L607.92,131a32.23,32.23,0,0,0,24.51,3.31c13.66-5.41,12.43-17.26,12.43-17.26v-7.49a29.09,29.09,0,0,1-9.43,6.66,27.68,27.68,0,0,1-11.1,2.25q-13.77,0-22.9-9.22t-9.13-23.1a33.23,33.23,0,0,1,2.29-12.27,30.72,30.72,0,0,1,6.5-10.19,29.87,29.87,0,0,1,10.09-7.17,32,32,0,0,1,12.49-2.32,29.56,29.56,0,0,1,11.56,2.23,29.05,29.05,0,0,1,9.63,6.77V55.79H657V117C657,129.82,650.91,140.31,637.5,146.58ZM604.92,86a20.13,20.13,0,0,0,5.77,14.64,19,19,0,0,0,14.14,5.91,18.32,18.32,0,0,0,13.46-5.93,19.21,19.21,0,0,0,5.83-13.89,20.19,20.19,0,0,0-5.79-14.5,18.26,18.26,0,0,0-13.7-6.06A19.68,19.68,0,0,0,604.92,86Z"/><path class="b8d00e32-31dd-4a79-914d-5a624aa31968" d="M686,119.06H674.3V55.38H685v6.95a23,23,0,0,1,7.94-6,22.49,22.49,0,0,1,9.53-1.93q12.07,0,18.53,7.11t6.46,20.36V119.1h-12V84.23q0-9.81-3.62-14.55t-11.2-4.74c-5.51,0-8.55,1.86-11,5.59S686,80.39,686,89Z"/><path class="b7d80303-a566-43e8-b743-25832b0c0470" d="M264.09,119.06H252.4V55.38h10.73v6.95a23,23,0,0,1,7.95-6,22.49,22.49,0,0,1,9.53-1.93q12.08,0,18.53,7.11t6.46,20.36V119.1H293.66V84.23q0-9.81-3.63-14.55t-11.2-4.74c-5.51,0-8.56,1.86-11,5.59s-3.71,9.86-3.71,18.42Z"/><polygon class="b8d00e32-31dd-4a79-914d-5a624aa31968" points="569.06 119 569.06 55 582.38 55 582.38 119 569.06 119"/><path class="b8d00e32-31dd-4a79-914d-5a624aa31968" d="M566.44,35.1a9.28,9.28,0,1,1,9.28,9.28A9.27,9.27,0,0,1,566.44,35.1Z"/><polygon class="b8d00e32-31dd-4a79-914d-5a624aa31968" points="537.77 119 537.77 26.51 551.09 26.51 551.09 119 537.77 119"/><polygon class="b7d80303-a566-43e8-b743-25832b0c0470" points="379.26 119 379.26 55 392.59 55 392.59 119 379.26 119"/><path class="b7d80303-a566-43e8-b743-25832b0c0470" d="M376.64,35.1a9.29,9.29,0,1,1,9.29,9.28A9.3,9.3,0,0,1,376.64,35.1Z"/><polygon class="b7d80303-a566-43e8-b743-25832b0c0470" points="221.11 119 221.11 55 234.43 55 234.43 119 221.11 119"/><path class="b7d80303-a566-43e8-b743-25832b0c0470" d="M218.49,35.1a9.28,9.28,0,1,1,9.28,9.28A9.27,9.27,0,0,1,218.49,35.1Z"/><polygon class="b7d80303-a566-43e8-b743-25832b0c0470" points="309.49 55.03 324.62 55.03 340.78 90.11 358.31 55.03 373.44 55.03 340.44 119 309.49 55.03"/><path class="b7d80303-a566-43e8-b743-25832b0c0470" d="M428.55,81.29c-4.76-1.53-11.08-4-11.08-7.64,0-4,2.71-6.41,8.07-7.14,4.59-.63,10.08,2.09,11.46,3.42l6.52-10.16c-4.66-3.05-12.32-5.88-19.84-4.86-11.67,1.6-18.9,8.78-18.9,18.74,0,12.41,14.75,17.15,19.6,18.7,7.66,2.45,10.37,4.54,10.37,8,0,6.49-8.5,7-11.11,7-4.91,0-11.84-3.12-14.09-4.32l-6.39,10.12c1.13.61,11.27,5.92,20.48,5.92,11.47,0,23.81-5.86,23.81-18.71S433.72,83,428.55,81.29Z"/><path class="ae52d935-8d59-48b6-b889-c6a52c9567ff" d="M764.54,54.52a13.72,13.72,0,1,0,13.71,13.71,13.72,13.72,0,0,0-13.71-13.71Zm11.24,13.71A11.25,11.25,0,1,1,764.54,57a11.26,11.26,0,0,1,11.24,11.23Z"/><path class="ae52d935-8d59-48b6-b889-c6a52c9567ff" d="M759.2,61.28a30.22,30.22,0,0,1,4.14-.29c2.3,0,3.81.36,4.86,1.13a3.1,3.1,0,0,1,1.31,2.56c0,1.76-1.41,2.94-3.15,3.43h0a3.62,3.62,0,0,1,2.45,2.73,19.34,19.34,0,0,0,1.27,3.71h-2.24a14.22,14.22,0,0,1-1.09-3.22c-.49-1.88-1.41-2.57-3.36-2.63h-2v5.9H759.2Zm2.16,6.13h2.21c2.28,0,3.76-1,3.76-2.56,0-1.74-1.56-2.5-3.84-2.5a12.64,12.64,0,0,0-2.13.15Z"/></g></g></svg>