<svg xmlns="http://www.w3.org/2000/svg" viewBox="0 0 78.2 13.5"><title>logo-damonsystem</title><path d="M57.5,6a0.8,0.8,0,0,1,.4-0.5,0.5,0.5,0,0,1,.6.7,2.5,2.5,0,0,0-.2.6V7.3c-0.1.5-.2,1-0.2,1.4a12.6,12.6,0,0,0-.1,1.3h1.3a0.8,0.8,0,0,1,.6.2,0.5,0.5,0,0,1-.1.6H57.9a10.5,10.5,0,0,0,.2,2.1,0.6,0.6,0,0,1,0,.6,0.4,0.4,0,0,1-.7-0.1,3.9,3.9,0,0,1-.1-0.6,11.7,11.7,0,0,1-.1-2H56.1a0.4,0.4,0,0,1,.1-0.8H57c0-.3,0-0.7.1-1s0.2-1.3.3-2a1.5,1.5,0,0,0,.1-0.6A0.6,0.6,0,0,1,57.5,6Z" transform="translate(0 -2.1)" style="fill:#fff"/><path d="M65.7,9.3h0.8a0.8,0.8,0,0,1,.6.6,1.8,1.8,0,0,1-.2,1.2,3.4,3.4,0,0,1-1,1l-1.3.8a0.9,0.9,0,0,0,.7.3,5.8,5.8,0,0,0,2-.5l0.5-.2c0-.4,0-0.7,0-1.1H67.6a0.7,0.7,0,0,1,.3-0.7,0.5,0.5,0,0,1,.6.2c0,0.5,0,1.1,0,1.6l1.2-1a3,3,0,0,1,1.3-.8,1.1,1.1,0,0,1,.9.1,1.2,1.2,0,0,1,.3.8,3.9,3.9,0,0,0,.3,1.1,0.5,0.5,0,0,0,.7.2l1.1-.4a1.4,1.4,0,0,1,.8-0.1,0.5,0.5,0,0,1,0,.8H74.7l-0.9.4-0.8.2a1.2,1.2,0,0,1-1-.5,2.5,2.5,0,0,1-.4-0.9,3.4,3.4,0,0,0-.1-0.7,0.5,0.5,0,0,0-.7.1l-0.9.8a4.2,4.2,0,0,0-1,1,1,1,0,0,1-.4.4,0.5,0.5,0,0,1-.6-0.2,0.7,0.7,0,0,1-.1-0.4l-1.2.4a4,4,0,0,1-2,.1,1.3,1.3,0,0,1-.8-0.6,5.8,5.8,0,0,1-3.2.6,1.3,1.3,0,0,1-1-.8,2.1,2.1,0,0,1,0-1.2,4.4,4.4,0,0,1,.7-1.5,3.3,3.3,0,0,1,1-1,1.6,1.6,0,0,1,1-.1,0.8,0.8,0,0,1,.6.7,1.7,1.7,0,0,1-.3,1.3,3.4,3.4,0,0,1-2.3,1.3,0.5,0.5,0,0,0,.2.5,2.1,2.1,0,0,0,1.2.1l1.8-.6A4.5,4.5,0,0,1,64,11a3.9,3.9,0,0,1,1.6-1.8h0Zm-4.1.9a3.2,3.2,0,0,0-1,1.4l1-.4a1.2,1.2,0,0,0,.6-1A0.4,0.4,0,0,0,61.6,10.1Zm3.5,0.7a4.2,4.2,0,0,0-.6,1.1l1.4-1a0.9,0.9,0,0,0,.4-0.8c0-.2-0.3-0.1-0.4-0.1A2.3,2.3,0,0,0,65.1,10.8Z" transform="translate(0 -2.1)" style="fill:#fff"/><path d="M7.8,9.8s-0.1,2.7,3.7,3.7C10.4,9.7,7.8,9.8,7.8,9.8" transform="translate(0 -2.1)" style="fill:#fff"/><path d="M5.7,7.6S5.8,5,2,3.9C3.1,7.7,5.7,7.6,5.7,7.6" transform="translate(0 -2.1)" style="fill:#fff"/><path d="M6.8,10.4s-1.9,1.8,0,5.2c1.9-3.5,0-5.2,0-5.2" transform="translate(0 -2.1)" style="fill:#fff"/><path d="M6.7,7.4s1.9-1.8,0-5.2c-1.9,3.5,0,5.2,0,5.2" transform="translate(0 -2.1)" style="fill:#fff"/><path d="M8.3,8.9s1.8,1.9,5.2,0c-3.5-1.9-5.2,0-5.2,0" transform="translate(0 -2.1)" style="fill:#fff"/><path d="M5.2,8.9S3.4,7,0,8.9c3.5,1.9,5.2,0,5.2,0" transform="translate(0 -2.1)" style="fill:#fff"/><path d="M7.8,7.6s2.7,0.1,3.7-3.7C7.7,5,7.8,7.6,7.8,7.6" transform="translate(0 -2.1)" style="fill:#fff"/><path d="M5.7,9.8S3,9.7,2,13.5c3.8-1.1,3.7-3.7,3.7-3.7" transform="translate(0 -2.1)" style="fill:#fff"/><path d="M10.8,11.7A3.6,3.6,0,0,0,7.8,9.8a3.6,3.6,0,0,0,1.9,2.9,4.8,4.8,0,0,0,1-1" transform="translate(0 -2.1)" style="fill:#fff"/><path d="M5.7,7.6A3.6,3.6,0,0,0,4,4.8,4.7,4.7,0,0,0,2.9,5.9,3.5,3.5,0,0,0,5.7,7.6" transform="translate(0 -2.1)" style="fill:#fff"/><path d="M6.8,10.4A3.6,3.6,0,0,0,6,13.7H7.5a3.6,3.6,0,0,0-.7-3.3" transform="translate(0 -2.1)" style="fill:#fff"/><path d="M6.7,7.4A3.6,3.6,0,0,0,7.5,4H6a3.6,3.6,0,0,0,.7,3.3" transform="translate(0 -2.1)" style="fill:#fff"/><path d="M8.3,8.9a3.6,3.6,0,0,0,3.3.7,5.7,5.7,0,0,0,.1-0.7,3.8,3.8,0,0,0-.1-0.7,3.6,3.6,0,0,0-3.3.7" transform="translate(0 -2.1)" style="fill:#fff"/><path d="M5.2,8.9a3.6,3.6,0,0,0-3.3-.7,5.7,5.7,0,0,0-.1.7,3.9,3.9,0,0,0,.1.7,3.6,3.6,0,0,0,3.3-.7" transform="translate(0 -2.1)" style="fill:#fff"/><path d="M7.8,7.6a3.6,3.6,0,0,0,2.8-1.7A5.1,5.1,0,0,0,9.5,4.9,3.6,3.6,0,0,0,7.8,7.6" transform="translate(0 -2.1)" style="fill:#fff"/><path d="M5.7,9.8a3.6,3.6,0,0,0-2.9,1.9,5.2,5.2,0,0,0,1,1A3.7,3.7,0,0,0,5.7,9.8" transform="translate(0 -2.1)" style="fill:#fff"/><path d="M9.6,10.4a3.1,3.1,0,0,0-1.8-.7,3.3,3.3,0,0,0,.7,1.8,3.1,3.1,0,0,0,1.1-1.2" transform="translate(0 -2.1)" style="fill:#fff"/><path d="M5.7,7.6A3.2,3.2,0,0,0,5.1,6,3.4,3.4,0,0,0,4,7.1a3.2,3.2,0,0,0,1.7.6" transform="translate(0 -2.1)" style="fill:#fff"/><path d="M6.8,10.4A3.2,3.2,0,0,0,6,12.1H7.5a3.1,3.1,0,0,0-.8-1.7" transform="translate(0 -2.1)" style="fill:#fff"/><path d="M6.7,7.4a3.2,3.2,0,0,0,.8-1.7H6a3.1,3.1,0,0,0,.8,1.7" transform="translate(0 -2.1)" style="fill:#fff"/><path d="M9.9,8.1a3.1,3.1,0,0,0-1.7.8,3.2,3.2,0,0,0,1.7.8A3.2,3.2,0,0,0,10,8.9a3.2,3.2,0,0,0-.1-0.8" transform="translate(0 -2.1)" style="fill:#fff"/><path d="M5.2,8.9a3.2,3.2,0,0,0-1.7-.8,3.2,3.2,0,0,0-.1.8,3.3,3.3,0,0,0,.1.8,3.1,3.1,0,0,0,1.7-.8" transform="translate(0 -2.1)" style="fill:#fff"/><path d="M8.4,6a3.1,3.1,0,0,0-.5,1.6,3.2,3.2,0,0,0,1.7-.6A3.7,3.7,0,0,0,8.4,6" transform="translate(0 -2.1)" style="fill:#fff"/><path d="M5.7,9.8a3.3,3.3,0,0,0-1.8.7A3.3,3.3,0,0,0,5,11.6a3.3,3.3,0,0,0,.7-1.8" transform="translate(0 -2.1)" style="fill:#fff"/><path d="M35.4,8.6a1.5,1.5,0,0,0,.4,1.1,1.4,1.4,0,0,0,1.1.4,1.4,1.4,0,0,0,1-.4,1.5,1.5,0,0,0,.4-1,1.5,1.5,0,0,0-.4-1.1,1.4,1.4,0,0,0-1-.5,1.5,1.5,0,0,0-1.5,1.5m3,2.5V10.4l-0.7.5-0.8.2a2.4,2.4,0,0,1-1.7-.7,2.4,2.4,0,0,1-.7-1.7,2.6,2.6,0,0,1,.2-0.9A2.4,2.4,0,0,1,35.1,7l0.8-.5,0.9-.2,0.9,0.2,0.7,0.5V6.3h0.9v4.8H38.4Z" transform="translate(0 -2.1)" style="fill:#fff"/><path d="M45.7,8.6a1.5,1.5,0,0,0,.4,1.1,1.4,1.4,0,0,0,1.1.4,1.4,1.4,0,0,0,1-.4,1.5,1.5,0,0,0,.4-1,1.5,1.5,0,0,0-.4-1.1,1.4,1.4,0,0,0-1-.5,1.5,1.5,0,0,0-1.5,1.5m2.5,4.6a3.8,3.8,0,0,1-2.6-.3L46,12a2.4,2.4,0,0,0,1.8.3,1.3,1.3,0,0,0,.9-1.3V10.4l-0.7.5-0.8.2a2.3,2.3,0,0,1-1.7-.7,2.4,2.4,0,0,1-.7-1.7,2.6,2.6,0,0,1,.2-0.9A2.4,2.4,0,0,1,45.4,7l0.8-.5,0.9-.2L48,6.4l0.7,0.5V6.3h0.9V11a2.4,2.4,0,0,1-1.5,2.2" transform="translate(0 -2.1)" style="fill:#fff"/><path d="M51.8,11.1H51V6.3h0.8V6.8l0.6-.5h0.7a1.8,1.8,0,0,1,1.4.5A2.2,2.2,0,0,1,55,8.3v2.8H54.1V8.5a1.9,1.9,0,0,0-.3-1.1A1,1,0,0,0,53,7.1a0.9,0.9,0,0,0-.8.4,2.6,2.6,0,0,0-.3,1.4v2.2Z" transform="translate(0 -2.1)" style="fill:#fff"/><path d="M20,11.1H19.1V6.3h0.8V6.8l0.6-.5h0.7a1.8,1.8,0,0,1,1.4.5,2.2,2.2,0,0,1,.5,1.5v2.8H22.2V8.5a1.9,1.9,0,0,0-.3-1.1,1,1,0,0,0-.8-0.3,0.9,0.9,0,0,0-.8.4A2.6,2.6,0,0,0,20,8.9v2.2Z" transform="translate(0 -2.1)" style="fill:#fff"/><rect x="43" y="4.2" width="1" height="4.84" style="fill:#fff"/><path d="M42.8,4.8a0.7,0.7,0,1,1,.7.7,0.7,0.7,0,0,1-.7-0.7" transform="translate(0 -2.1)" style="fill:#fff"/><rect x="40.6" y="2" width="1" height="6.98" style="fill:#fff"/><rect x="28.7" y="4.2" width="1" height="4.84" style="fill:#fff"/><path d="M28.5,4.8a0.7,0.7,0,1,1,.7.7,0.7,0.7,0,0,1-.7-0.7" transform="translate(0 -2.1)" style="fill:#fff"/><rect x="16.7" y="4.2" width="1" height="4.84" style="fill:#fff"/><path d="M16.5,4.8a0.7,0.7,0,1,1,.7.7,0.7,0.7,0,0,1-.7-0.7" transform="translate(0 -2.1)" style="fill:#fff"/><path d="M23.4,6.3h1.1l1.2,2.7,1.3-2.7h1.1l-2.5,4.8Z" transform="translate(0 -2.1)" style="fill:#fff"/><path d="M32.4,8.3a1.1,1.1,0,0,1-.8-0.6,0.6,0.6,0,0,1,.6-0.5,1.3,1.3,0,0,1,.9.3l0.5-.8A2.4,2.4,0,0,0,32,6.3a1.5,1.5,0,0,0-1.4,1.4c0,0.9,1.1,1.3,1.5,1.4s0.8,0.3.8,0.6-0.6.5-.8,0.5a2.8,2.8,0,0,1-1.1-.3l-0.5.8a3.8,3.8,0,0,0,1.5.4,1.6,1.6,0,0,0,1.8-1.4,1.6,1.6,0,0,0-1.4-1.4" transform="translate(0 -2.1)" style="fill:#fff"/><path d="M78,13.9a0.8,0.8,0,1,1-.8-0.8,0.8,0.8,0,0,1,.8.8m-0.9-1a1,1,0,1,0,1,1,1,1,0,0,0-1-1" transform="translate(0 -2.1)" style="fill:#fff"/><path d="M76.9,13.8h0.2a0.2,0.2,0,0,0,.3-0.2c0-.1-0.1-0.2-0.3-0.2H76.9v0.4h0Zm-0.2-.5h0.7v0.2a0.3,0.3,0,0,1-.2.3l0.2,0.2v0.3H77.4V14.1a0.2,0.2,0,0,0-.3-0.2H76.9v0.4H76.7v-1Z" transform="translate(0 -2.1)" style="fill:#fff"/></svg>