<svg id="f92f2e74-efe9-40a1-8aca-fac3bd1c2d2f" data-name="Layer 1" xmlns="http://www.w3.org/2000/svg" viewBox="0 0 50 50">
  <title>rg-logo</title>
  <path class="f7fc7a5c-2850-47f0-b981-f6ad7d6729ca" d="M25,0A25,25,0,1,0,50,25,25,25,0,0,0,25,0Zm.17,19.07a2.32,2.32,0,0,1,2.08-.92c1.65.2,1.36,1.47,1.44,2A2.25,2.25,0,0,0,27.16,19c-.72-.09-1.64-.25-2,.11Zm8.54,14.65a40.46,40.46,0,0,1-2.3-5.32,2.6,2.6,0,0,0,2.18-.06,9.08,9.08,0,0,1,0,3.12,5.79,5.79,0,0,0,.12,2.27ZM36.8,45.27a68.92,68.92,0,0,0-1.67-7.67,20.65,20.65,0,0,0-.92-2.68,2.56,2.56,0,0,0,1.53,1.14c1.92.48,2.37-1.9.37-4.11a7,7,0,0,1-1.74-4.05,9.94,9.94,0,0,0,1.84-1.71c-9.2,2.54-8.79-3.44-8.79-3.44.1,2.82,4.45,2.76,4.45,2.76h0c1-1.22,3.41-2,8-1.36a8,8,0,0,0-6.67-5.21c-3-.27-3.69,2-3.69,2s-.34-2.57,3.48-2.76,1.84-3.68-.47-5.3-1.11-2-2.14-2,.51,1.1,0,1.16-5.2-6.65-6.6-7.29-.59.72,0,1S27.09,9.73,26.09,10s-2.31.86-4.43-1.71S18.08,4.6,15.93,4.46s-1,.79.67,1.84,2.13,1.56,2.12,2.51a2,2,0,0,0,1.75,1.84s-.92.6-3-.88S14.56,7.21,13.1,6.92s-3.1,5.52.52,7.62c2.11,1.25,3,1.53,3.37,1.55a4.82,4.82,0,0,1-2.2.13s.85,1.49,4,.69S24.27,17,23.41,18a31.72,31.72,0,0,0-6.2,10.54c-1.74,5.16-2,10.13-5.29,12.78-.39.81-.81,1.57-1.25,2.3A23.47,23.47,0,1,1,36.8,45.27Z" transform="translate(0 0)"/>
</svg>
